<svg width="152" height="32" viewBox="0 0 152 32" fill="none" xmlns="http://www.w3.org/2000/svg">
<g style="mix-blend-mode:luminosity" clip-path="url(#clip0_4734_56266)">
<mask id="mask0_4734_56266" style="mask-type:luminance" maskUnits="userSpaceOnUse" x="0" y="0" width="152" height="32">
<path d="M151.635 0.925537H0.890137V31.0744H151.635V0.925537Z" fill="white"/>
</mask>
<g mask="url(#mask0_4734_56266)">
<path fill-rule="evenodd" clip-rule="evenodd" d="M18.0417 11.5358L17.5563 11.3589L4.80945 6.741L10.795 4.50236L11.0627 4.59763L11.5639 4.78135L18.053 7.12884L23.3242 9.02956L23.8163 9.20646L24.1248 9.31756L18.5225 11.3589L18.0417 11.5358ZM14.7439 6.69337L13.46 6.16035L11.9223 6.7047L13.206 7.23998L14.7439 6.69337ZM13.6098 8.21984L12.5528 7.77978L11.2917 8.2289L12.3442 8.67343L13.6098 8.21984ZM16.3315 7.76619L15.2746 7.32619L14.009 7.77978L15.0659 8.21984L16.3315 7.76619ZM12.174 5.59333L11.0967 5.15105L9.84926 5.60014L10.9243 6.04695L12.174 5.59333ZM9.847 6.24429L7.64915 7.01771L9.48182 7.77978L11.6796 7.00411L9.847 6.24429ZM7.42915 3.74935L8.64481 3.34109L9.66776 3.75843L8.44982 4.16895L7.42915 3.74935ZM5.05895 4.33453L3.41683 3.66089L5.3765 3.0054L7.01859 3.67677L5.05895 4.33453ZM3.32383 4.32999L4.75729 4.91744L3.04712 5.49127L1.61367 4.90383L3.32383 4.32999ZM2.30998 2.51322L3.50075 3.00087L2.08091 3.47717L0.890137 2.98953L2.30998 2.51322ZM5.36285 1.62639L6.14765 1.94846L5.21318 2.26146L4.43068 1.94165L5.36285 1.62639ZM2.40978 0.925537L3.19228 1.24534L2.26008 1.56061L1.47531 1.23854L2.40978 0.925537ZM89.4148 26.0837C85.8874 26.0837 84.0461 23.7044 84.0461 20.4904V18.6759C84.0461 15.4621 85.8874 13.0804 89.4148 13.0804C92.9423 13.0804 94.7904 15.4575 94.7904 18.6714V20.4859C94.7904 23.7044 92.9423 26.0837 89.4148 26.0837ZM91.8192 18.6714C91.8192 16.8274 90.9886 15.6367 89.4148 15.6367C87.8411 15.6367 87.0105 16.8274 87.0105 18.6714V20.4859C87.0105 22.3276 87.8426 23.5184 89.4148 23.5184C90.9864 23.5184 91.8192 22.3276 91.8192 20.4859V18.6714ZM102.445 26.0837C101.724 26.0779 101.003 26.0257 100.288 25.9271V29.9054C100.288 30.0257 100.241 30.1411 100.155 30.2262C100.07 30.3112 99.9549 30.3591 99.8351 30.3591H97.7684C97.6485 30.3591 97.5324 30.3112 97.448 30.2262C97.3621 30.1411 97.3146 30.0257 97.3146 29.9054V14.2667C97.3146 13.931 97.4051 13.795 97.9229 13.6611C99.3987 13.2865 100.915 13.0901 102.438 13.0759C106.054 13.0759 107.807 15.2102 107.807 18.7145V20.4451C107.814 23.9493 106.061 26.0837 102.445 26.0837ZM104.847 18.7145C104.847 16.8728 104.375 15.5028 102.445 15.5028C101.723 15.496 101.002 15.5484 100.288 15.6593V23.5002C101.003 23.595 101.724 23.6481 102.445 23.659C104.375 23.659 104.847 22.2982 104.847 20.4451V18.7145ZM120.193 20.6039H112.867V20.6696C112.867 21.9738 113.407 23.5229 115.564 23.5229C117.204 23.5229 118.754 23.3891 119.696 23.2961H119.765C119.991 23.2961 120.168 23.4095 120.168 23.6341V25.1174C120.168 25.4758 120.103 25.6323 119.696 25.7003C118.263 25.9866 116.801 26.1143 115.34 26.0814C113.092 26.0814 109.896 24.8702 109.896 20.4428V18.7825C109.896 15.2783 111.852 13.0759 115.289 13.0759C118.728 13.0759 120.647 15.4416 120.647 18.7825V20.0414C120.647 20.3997 120.507 20.6039 120.193 20.6039ZM117.653 18.4015C117.653 16.6483 116.687 15.6367 115.295 15.6367C113.902 15.6367 112.89 16.6256 112.89 18.4015V18.49H117.653V18.4015ZM132.614 25.5007C131.136 25.8734 129.621 26.0692 128.098 26.0837C124.469 26.0837 122.729 23.9493 122.729 20.4451V18.7145C122.729 15.2102 124.48 13.0759 128.098 13.0759C128.819 13.0826 129.54 13.1357 130.255 13.2347V9.25643C130.255 9.13614 130.303 9.02074 130.387 8.93565C130.473 8.85063 130.588 8.80284 130.708 8.80284H132.774C132.895 8.80284 133.01 8.85063 133.095 8.93565C133.18 9.02074 133.228 9.13614 133.228 9.25643V24.9065C133.221 25.2308 133.122 25.3669 132.614 25.5007ZM130.255 15.6684C129.539 15.5754 128.819 15.5232 128.098 15.5119C126.166 15.5119 125.693 16.8728 125.693 18.7236V20.4541C125.693 22.2959 126.166 23.6681 128.098 23.6681C128.82 23.6754 129.542 23.6223 130.255 23.5093V15.6684ZM138.792 11.5495H136.612C136.49 11.5496 136.373 11.5024 136.285 11.4178C136.197 11.3332 136.146 11.2178 136.14 11.0959V9.12265C136.145 9.00047 136.196 8.8847 136.284 8.80005C136.373 8.71533 136.49 8.66838 136.612 8.66898H138.792C138.913 8.66898 139.028 8.71677 139.113 8.80186C139.197 8.88688 139.246 9.00228 139.246 9.12265V11.1004C139.244 11.2199 139.196 11.3341 139.111 11.4182C139.026 11.5024 138.911 11.5495 138.792 11.5495ZM138.724 25.9044H136.655C136.533 25.9003 136.418 25.8487 136.333 25.7606C136.248 25.6726 136.201 25.5549 136.201 25.4327V13.6838C136.201 13.5635 136.25 13.4481 136.335 13.3631C136.42 13.2779 136.535 13.2302 136.655 13.2302H138.724C138.845 13.2302 138.959 13.2779 139.044 13.3631C139.13 13.4481 139.178 13.5635 139.178 13.6838V25.4327C139.178 25.5549 139.131 25.6726 139.047 25.7606C138.962 25.8487 138.846 25.9003 138.724 25.9044ZM151.101 25.9044H149.191C149.071 25.9044 148.955 25.8567 148.871 25.7716C148.786 25.6865 148.737 25.5711 148.737 25.4508V25.0924C147.791 25.7096 146.692 26.0513 145.562 26.0791C143.698 26.0791 141.677 25.3624 141.677 22.3276V22.246C141.677 19.683 143.249 18.3584 147.159 18.3584H148.575V17.3672C148.575 15.9066 147.923 15.5527 146.596 15.5527C145.374 15.5488 144.152 15.6087 142.936 15.732H142.823C142.595 15.732 142.419 15.6638 142.419 15.3509V13.9083C142.419 13.6611 142.552 13.5024 142.845 13.4366C144.081 13.1938 145.337 13.0731 146.596 13.0759C149.787 13.0759 151.539 14.4913 151.539 17.3672V25.4554C151.538 25.5722 151.491 25.684 151.41 25.7677C151.329 25.8514 151.218 25.9004 151.101 25.9044ZM148.586 20.334H147.17C145.129 20.334 144.676 20.9849 144.676 22.2437V22.3322C144.676 23.4345 145.17 23.7247 146.292 23.7247C147.096 23.7066 147.885 23.4908 148.586 23.0965V20.334ZM19.0169 11.8852L18.5224 12.0644V30.5972L24.5148 27.2585V16.3375L31.1309 13.9355L31.6889 13.7314L31.7297 7.28313L19.0169 11.8852ZM24.3016 8.68488L24.7825 8.85952L25.1 8.97522L31.2692 6.74106L25.2837 4.50017L24.5148 4.78142L19.0282 6.7751L23.8163 8.51017L24.3016 8.68488ZM45.2726 25.9271C44.7691 26.0219 44.2584 26.0742 43.7462 26.0836C41.2081 26.0836 40.1739 25.5234 40.1739 22.5136V15.4574L38.0622 15.1444C37.9444 15.1369 37.8333 15.0868 37.7498 15.0033C37.6663 14.9198 37.6161 14.8087 37.6086 14.6908V13.6837C37.6086 13.5634 37.6564 13.4481 37.7414 13.363C37.8265 13.2779 37.9419 13.2301 38.0622 13.2301H40.1739V11.3907C40.1809 11.2726 40.2309 11.1613 40.3146 11.0777C40.3982 10.9941 40.5095 10.9441 40.6275 10.9371L42.7165 10.5787H42.8071C42.8536 10.5733 42.9006 10.5782 42.9449 10.5929C42.9893 10.6076 43.0299 10.6317 43.064 10.6636C43.0981 10.6955 43.1248 10.7346 43.1424 10.7778C43.1599 10.8212 43.1678 10.8677 43.1655 10.9144V13.2347H45.1887C45.309 13.2347 45.4244 13.2824 45.5095 13.3675C45.5946 13.4526 45.6423 13.568 45.6423 13.6882V15.0129C45.6423 15.1332 45.5946 15.2485 45.5095 15.3336C45.4244 15.4187 45.309 15.4665 45.1887 15.4665H43.1655V22.5136C43.1655 23.6362 43.2335 23.7701 44.0432 23.7701H45.234C45.5266 23.7701 45.7058 23.8835 45.7058 24.1081V25.5234C45.7013 25.748 45.572 25.875 45.2726 25.9271ZM57.6296 20.6038H50.3058V20.6696C50.3058 21.9738 50.8429 23.5229 53.0024 23.5229C54.6422 23.5229 56.1914 23.3891 57.1349 23.2961H57.2029C57.43 23.2961 57.6065 23.4095 57.6065 23.634V25.1174C57.6065 25.4758 57.5385 25.6323 57.1349 25.7003C55.7 25.9866 54.2382 26.1143 52.7753 26.0813C50.53 26.0813 47.3321 24.8701 47.3321 20.4428V18.7825C47.3321 15.2782 49.287 13.0759 52.7257 13.0759C56.1644 13.0759 58.0785 15.4416 58.0785 18.7825V20.0413C58.0785 20.3997 57.9444 20.6038 57.6296 20.6038ZM55.0983 18.4014C55.0983 16.6483 54.1321 15.6366 52.7392 15.6366C51.3467 15.6366 50.3352 16.6255 50.3352 18.4014V18.4899H55.0983V18.4014ZM68.1876 25.7933C67.2359 26.0035 66.2629 26.1009 65.2889 26.0836C62.3677 26.0836 60.1652 24.2872 60.1652 20.6242V18.5353C60.1652 14.8745 62.3677 13.0759 65.2889 13.0759C66.2634 13.059 67.2363 13.1572 68.1876 13.3685C68.5685 13.4592 68.6591 13.5953 68.6591 13.9514V15.4121C68.6591 15.6389 68.4798 15.7501 68.2556 15.7501H68.1876C67.2267 15.6248 66.2576 15.5724 65.2889 15.5935C64.2316 15.5935 63.1319 16.1991 63.1319 18.5421V20.6311C63.1319 22.9694 64.2316 23.5796 65.2889 23.5796C66.2576 23.5995 67.2262 23.5472 68.1876 23.4231H68.2556C68.4822 23.4231 68.6591 23.5343 68.6591 23.7588V25.2194C68.6591 25.5687 68.5685 25.7026 68.1876 25.7933ZM81.0591 25.9044H78.9931C78.8703 25.9003 78.755 25.8487 78.6705 25.7606C78.5854 25.6725 78.5386 25.5549 78.5394 25.4327V18.0408C78.5394 16.0879 78.2017 15.5935 76.695 15.5935C75.9333 15.5935 75.0327 15.8634 74.0891 16.3556V25.4282C74.0896 25.5503 74.0428 25.668 73.958 25.7561C73.8736 25.8441 73.7579 25.8958 73.6354 25.8999H71.5694C71.4469 25.8958 71.3312 25.8441 71.2468 25.7561C71.162 25.668 71.1148 25.5503 71.1157 25.4282V9.25636C71.1157 9.13606 71.1635 9.02074 71.2483 8.93565C71.3336 8.85055 71.4489 8.80277 71.5694 8.80277H73.6354C73.756 8.80277 73.8712 8.85055 73.9561 8.93565C74.0414 9.02074 74.0891 9.13606 74.0891 9.25636V13.9083C74.9444 13.3912 75.8875 13.0759 77.491 13.0759C80.5918 13.0759 81.5128 15.2782 81.5128 18.0408V25.4327C81.5136 25.5549 81.4661 25.6725 81.3817 25.7606C81.2965 25.8487 81.1812 25.9003 81.0591 25.9044ZM17.0631 11.8852L17.5575 12.0644V30.5949L11.5652 27.2585V9.89604L17.0631 11.8852ZM10.5967 9.54661L4.34803 7.28301L4.38885 13.7313L4.94681 13.9354L10.5967 15.9881V9.54661Z" fill="white"/>
</g>
</g>
<defs>
<clipPath id="clip0_4734_56266">
<rect width="150.745" height="30.1489" fill="white" transform="translate(0.890137 0.925537)"/>
</clipPath>
</defs>
</svg>
