<svg width="169" height="32" viewBox="0 0 169 32" fill="none" xmlns="http://www.w3.org/2000/svg">
<g style="mix-blend-mode:luminosity">
<path d="M26.0002 18.7874C25.5079 19.0882 24.9335 19.1429 24.4959 18.8968C23.9489 18.5686 23.6207 17.8301 23.6207 16.8182V13.7276C23.6207 12.2507 23.0463 11.184 22.0617 10.9105C20.3934 10.4182 19.1353 12.4695 18.6703 13.2353L15.7165 17.9669V12.1413C15.6892 10.8011 15.2516 10.008 14.431 9.76185C13.884 9.59775 13.0635 9.6798 12.2704 10.8832L5.679 21.4403C4.8038 19.772 4.33884 17.9122 4.33884 16.025C4.33884 9.65244 9.45332 4.48326 15.7165 4.48326C21.9797 4.48326 27.0942 9.65244 27.0942 16.025V16.0524V16.0797C27.1489 17.3105 26.766 18.2951 26.0002 18.7874ZM29.6104 16.025V15.9977V15.9703C29.583 8.23023 23.3472 1.91235 15.7165 1.91235C8.05846 1.91235 1.82263 8.23024 1.82263 16.025C1.82263 23.7925 8.05846 30.1377 15.7165 30.1377C19.2447 30.1377 22.5814 28.7975 25.1523 26.3634C25.672 25.8711 25.6993 25.0779 25.207 24.5583C24.742 24.0386 23.9489 24.0113 23.4292 24.4762C23.4292 24.4762 23.4292 24.4762 23.4019 24.5036C21.3233 26.4728 18.5336 27.5941 15.6618 27.5941C12.2977 27.5941 9.28922 26.1172 7.21061 23.7651L13.1456 14.2473V18.6506C13.1456 20.7566 13.9661 21.4404 14.6498 21.6318C15.3336 21.8233 16.3729 21.6865 17.4943 19.9087L20.7489 14.6302C20.8583 14.4661 20.9404 14.302 21.0498 14.1926V16.8729C21.0498 18.8421 21.8429 20.4284 23.2104 21.1942C24.4412 21.9053 26.0002 21.8233 27.2856 21.0301C28.8719 19.9908 29.7198 18.1857 29.6104 16.025ZM48.9743 11.2114C49.3025 11.4029 49.6033 11.8678 49.6033 12.2781C49.6033 12.9345 49.0563 13.4815 48.4273 13.4815C48.2632 13.4815 48.1264 13.4268 47.9897 13.3994C47.2512 12.8524 46.3213 12.4969 45.3367 12.4969C43.0119 12.4969 41.4256 14.384 41.4256 16.7361C41.4256 19.0882 43.0393 20.948 45.3367 20.948C46.4854 20.948 47.5247 20.4831 48.2905 19.7446C48.482 19.6079 48.7281 19.5258 48.9743 19.5258C49.6033 19.5258 50.0956 20.0181 50.0956 20.6472C50.0956 21.0574 49.8495 21.413 49.5486 21.6045C48.4273 22.5617 46.923 23.1908 45.3641 23.1908C41.8085 23.1908 38.9094 20.2643 38.9094 16.6541C38.9094 13.0439 41.8085 10.1174 45.3641 10.1174C46.6769 10.09 47.935 10.5003 48.9743 11.2114ZM55.4836 13.9464C57.9178 13.9464 59.9417 15.9977 59.9417 18.5412C59.9417 21.0575 57.8904 23.2181 55.4836 23.2181C52.94 23.2181 50.8341 21.0848 50.8341 18.5412C50.8341 15.9977 52.94 13.9464 55.4836 13.9464ZM55.4563 20.948C56.5229 20.948 57.4255 19.9361 57.4255 18.5686C57.4255 17.2011 56.5229 16.3259 55.4563 16.3259C54.3076 16.3259 53.3503 17.1737 53.3503 18.5686C53.3503 19.9087 54.3076 20.948 55.4563 20.948ZM61.4733 21.7959V15.3413C61.4733 14.6302 62.0203 14.0558 62.7314 14.0558C63.4151 14.0558 63.9895 14.6302 63.9895 15.3413V21.7959C63.9895 22.507 63.4151 23.0814 62.7314 23.0814C62.0476 23.0814 61.4733 22.4797 61.4733 21.7959ZM61.2818 11.6217C61.2818 10.7738 61.9382 10.1174 62.7314 10.1174C63.5519 10.1174 64.2083 10.8011 64.2083 11.6217C64.2083 12.4422 63.5519 13.0986 62.7314 13.0986C61.9109 13.0712 61.2818 12.4148 61.2818 11.6217ZM68.8031 18.2951V21.7959C68.8031 22.507 68.2288 23.0814 67.545 23.0814C66.8613 23.0814 66.2869 22.507 66.2869 21.7959V15.0404C66.2869 14.4934 66.7245 14.0558 67.2715 14.0558C67.8185 14.0558 68.2288 14.5208 68.2288 15.0404C69.2407 14.0832 70.1433 13.9464 70.9911 13.9464C73.5073 13.9464 74.6287 15.8336 74.6287 17.9942V21.7959C74.6287 22.507 74.0543 23.0814 73.3706 23.0814C72.6868 23.0814 72.1125 22.507 72.1125 21.7959V18.2951C72.1125 17.2011 71.9757 16.2712 70.3894 16.2712C69.2681 16.2712 68.8031 17.2011 68.8031 18.2951ZM82.779 19.6352C82.4782 19.6352 82.2867 19.4985 82.1226 19.307L79.1962 16.1344V21.7959C79.1962 22.507 78.6218 23.0814 77.9381 23.0814C77.2543 23.0814 76.68 22.507 76.68 21.7959V10.5823C76.762 10.3909 76.9535 10.2541 77.1449 10.2541C77.3637 10.2541 77.5552 10.4456 77.6919 10.5823L82.3688 15.8336C82.5055 15.9977 82.6696 16.0797 82.779 16.0797C82.8611 16.0797 83.0525 15.9977 83.1893 15.8336L87.8662 10.5823C88.0029 10.4456 88.167 10.2541 88.4132 10.2541C88.632 10.2541 88.8234 10.3909 88.8781 10.5823V21.7959C88.8781 22.507 88.3311 23.0814 87.62 23.0814C86.9363 23.0814 86.3619 22.507 86.3619 21.7959V16.1344L83.4354 19.307C83.2166 19.4985 83.0252 19.6352 82.779 19.6352ZM94.8678 20.948C95.9892 20.948 96.9464 19.9361 96.9464 18.5686C96.9464 17.2011 95.9618 16.2985 94.8678 16.2985C93.7738 16.2985 92.8712 17.2284 92.8712 18.5686C92.8712 19.8814 93.7464 20.948 94.8678 20.948ZM97.5481 22.0968L97.4934 21.7959C97.0011 22.7532 95.4422 23.1908 94.4576 23.1908C92.1054 23.1908 90.355 21.0575 90.355 18.5139C90.355 15.9977 92.1328 13.9191 94.5943 13.9191C95.0046 13.9191 96.4268 14.0285 97.5208 15.3139L97.5755 15.0131C97.5755 14.4661 97.9857 14.0285 98.5327 14.0285C99.0797 14.0285 99.5173 14.4934 99.5173 15.0131V22.0694C99.5173 22.6164 99.0797 23.054 98.5327 23.054C97.9584 23.0814 97.5481 22.6164 97.5481 22.0968ZM106.437 16.2712H106.163C104.577 16.3532 104.276 17.2558 104.276 18.2951V21.7959C104.276 22.507 103.702 23.0814 103.018 23.0814C102.334 23.0814 101.76 22.507 101.76 21.7959V15.0404C101.76 14.4934 102.198 14.0558 102.745 14.0558C103.292 14.0558 103.702 14.5208 103.702 15.0404C104.632 14.1652 105.398 13.9738 106.163 13.9464H106.41C107.011 13.9464 107.558 14.4661 107.558 15.1225C107.586 15.7242 107.039 16.2712 106.437 16.2712ZM116.146 21.1942C116.256 21.3857 116.338 21.5771 116.338 21.7959C116.338 22.4523 115.736 23.054 115.08 23.054C114.642 23.054 114.259 22.7258 113.958 22.3429L111.059 18.9788V21.7686C111.059 22.4797 110.485 23.054 109.801 23.054C109.117 23.054 108.543 22.4797 108.543 21.7686V11.5123C108.543 10.8011 109.09 10.2268 109.801 10.2268C110.512 10.2268 111.059 10.8011 111.059 11.5123V17.9122L113.958 14.7122C114.259 14.384 114.615 14.0285 115.052 14.0285C115.681 14.0285 116.256 14.6028 116.256 15.2592C116.256 15.4507 116.201 15.6695 116.092 15.8336L113.794 18.3498L116.146 21.1942ZM121.069 16.2985C120.385 16.2985 119.264 16.6541 119.264 17.7207H122.902C122.874 16.6541 121.726 16.2985 121.069 16.2985ZM124.351 19.3344H119.264C119.264 20.8387 120.714 21.0848 121.343 21.0848C121.808 21.0848 122.464 21.0027 122.984 20.7566C123.148 20.6472 123.394 20.5651 123.64 20.5651C124.187 20.5651 124.652 21.0301 124.652 21.6045C124.652 21.9874 124.406 22.3156 124.105 22.507C123.339 23.0814 122.327 23.2181 121.37 23.2181C118.827 23.2181 116.721 21.8506 116.721 18.6506C116.721 16.1344 118.006 13.9464 121.015 13.9464C123.449 13.9464 125.281 15.5327 125.336 18.3498C125.336 18.8694 124.898 19.3344 124.351 19.3344ZM131.353 23.1908H130.669C128.755 23.1908 127.633 22.3429 127.633 19.3617V16.2712H126.977C126.375 16.2712 125.856 15.7242 125.856 15.1225C125.856 14.4661 126.403 13.9464 126.977 13.9464H127.633V11.567C127.633 10.8559 128.18 10.2815 128.891 10.2815C129.575 10.2815 130.149 10.8559 130.149 11.567V13.9464H131.189C131.79 13.9464 132.31 14.4661 132.31 15.1225C132.31 15.7242 131.763 16.2712 131.189 16.2712H130.149V18.8694C130.149 20.5925 130.232 20.948 130.997 20.948H131.353C131.955 20.948 132.474 21.4404 132.474 22.0694C132.474 22.6711 131.955 23.1908 131.353 23.1908ZM143.524 11.2114C143.852 11.4029 144.153 11.8678 144.153 12.2781C144.153 12.9345 143.606 13.4815 142.977 13.4815C142.813 13.4815 142.676 13.4268 142.539 13.3994C141.801 12.8524 140.871 12.4969 139.886 12.4969C137.561 12.4969 135.975 14.384 135.975 16.7361C135.975 19.0882 137.589 20.948 139.886 20.948C141.035 20.948 142.074 20.4831 142.84 19.7446C143.031 19.6079 143.278 19.5258 143.524 19.5258C144.153 19.5258 144.645 20.0181 144.645 20.6472C144.645 21.0574 144.399 21.413 144.098 21.6045C142.977 22.5617 141.472 23.1908 139.913 23.1908C136.358 23.1908 133.459 20.2643 133.459 16.6541C133.459 13.0439 136.358 10.1174 139.913 10.1174C141.226 10.09 142.512 10.5003 143.524 11.2114ZM149.896 20.948C151.018 20.948 151.975 19.9361 151.975 18.5686C151.975 17.2011 150.99 16.2985 149.896 16.2985C148.775 16.2985 147.9 17.2284 147.9 18.5686C147.9 19.8814 148.802 20.948 149.896 20.948ZM152.577 22.0968L152.522 21.7959C152.03 22.7532 150.471 23.1908 149.486 23.1908C147.134 23.1908 145.383 21.0575 145.383 18.5139C145.383 15.9977 147.161 13.9191 149.623 13.9191C150.033 13.9191 151.455 14.0285 152.549 15.3139L152.604 15.0131C152.604 14.4661 153.014 14.0285 153.561 14.0285C154.108 14.0285 154.546 14.4934 154.546 15.0131V22.0694C154.546 22.6164 154.108 23.054 153.561 23.054C152.987 23.0814 152.577 22.6164 152.577 22.0968ZM161.411 20.948C162.532 20.948 163.407 19.8814 163.407 18.5686C163.407 17.2011 162.505 16.2985 161.411 16.2985C160.289 16.2985 159.332 17.2011 159.332 18.5686C159.332 19.9361 160.289 20.948 161.411 20.948ZM159.332 22.4523V25.6523C159.332 26.3634 158.758 26.9377 158.074 26.9377C157.39 26.9377 156.816 26.3634 156.816 25.6523V15.0404C156.816 14.4934 157.253 14.0558 157.8 14.0558C158.347 14.0558 158.758 14.5208 158.758 15.1498C159.688 14.1926 160.836 13.9464 161.712 13.9464C164.146 13.9464 165.951 15.9977 165.951 18.5412C165.951 21.0575 164.228 23.2181 161.848 23.2181C161.11 23.1908 160.016 22.972 159.332 22.4523Z" fill="white"/>
</g>
</svg>
