<svg width="61" height="60" viewBox="0 0 61 60" fill="none" xmlns="http://www.w3.org/2000/svg">
<path d="M44.3604 5.27865C42.7989 6.82257 41.3684 8.49591 40.0967 10.2802L39.6947 10.1508C37.3758 9.40192 34.9728 8.93967 32.5512 8.7825C31.8218 8.72703 29.1009 8.72703 28.2127 8.7825C25.5292 8.95816 23.4721 9.35569 21.1346 10.16C21.0411 10.197 20.9569 10.2247 20.8728 10.2525C19.5544 8.47742 18.0865 6.81332 16.4689 5.2879C24.2295 1.35878 33.3085 0.88728 41.4338 3.98435C42.3034 4.30793 43.1542 4.68697 43.9864 5.09375L44.3604 5.27865Z" fill="#F00500"/>
<path d="M58.8351 40.3449C57.657 43.6639 55.8898 46.7425 53.5991 49.4235C52.3555 50.8657 50.981 52.1878 49.5037 53.3896C46.0441 56.1446 42.0049 58.1138 37.6944 59.1492C32.9258 60.2864 27.9516 60.2864 23.183 59.1492C18.8632 58.1138 14.8333 56.1446 11.3737 53.3896C9.8964 52.1878 8.52192 50.8657 7.27835 49.4235C0.68648 41.7224 -1.31446 31.1462 2.04225 21.6146C2.67806 19.8488 3.47283 18.1477 4.42655 16.5298C4.866 15.7902 5.40832 14.9582 5.67012 14.6161C6.56774 18.4343 7.67105 21.7902 8.08246 23.0013C8.05441 23.066 8.01701 23.14 7.97961 23.2047C5.80102 27.5683 4.6229 31.7748 4.3424 36.2494C4.3424 36.3049 4.33304 36.3696 4.33304 36.425C4.25824 37.7656 4.29564 38.4035 4.52005 39.2448C5.22131 41.8796 7.3812 44.7825 10.766 47.63C16.3106 52.2894 23.8281 55.6546 29.5224 56.0429C35.4597 56.4404 44.2208 53.0106 50.0553 47.9998C50.9717 47.1955 51.8319 46.3449 52.636 45.4389C53.2157 44.7733 54.0759 43.6269 54.0105 43.6269C53.9918 43.6269 54.0105 43.6084 54.0479 43.5899C54.0759 43.5714 54.104 43.5437 54.0853 43.5252C54.0759 43.5159 54.0946 43.4882 54.1227 43.479C54.1507 43.4697 54.1694 43.4512 54.1601 43.4327C54.1507 43.4143 54.1601 43.3958 54.1975 43.3865C54.2255 43.3773 54.2349 43.3495 54.2255 43.3311C54.2162 43.3126 54.2255 43.2941 54.2442 43.2941C54.2629 43.2941 54.2816 43.2663 54.2816 43.2478C54.2816 43.2294 54.3003 43.2016 54.319 43.2016C54.3377 43.2016 54.3564 43.1831 54.3564 43.1646C54.3845 43.0907 54.4312 43.0167 54.478 42.952C54.6182 42.7394 55.1792 41.7502 55.254 41.5837C55.787 40.3911 56.1236 39.328 56.2825 38.2648C56.3573 37.7563 56.4041 36.8226 56.3667 36.6007C56.3574 36.5637 56.3574 36.499 56.348 36.3973C56.3293 36.2124 56.32 35.9351 56.3013 35.6577C56.2826 35.2417 56.2452 34.6592 56.2171 34.3727C55.815 30.1754 54.7304 26.7455 52.6734 23.1123C52.5892 22.9736 52.5144 22.8349 52.4677 22.724C52.449 22.6962 52.4396 22.6685 52.4303 22.65C52.7201 21.7902 53.9076 18.1939 54.852 14.0799L54.8707 14.0984L55.0109 14.2833C55.254 14.6069 55.8992 15.5683 56.189 16.0306C57.5074 18.1569 58.5359 20.4405 59.2653 22.8257C60.9576 28.5668 60.8174 34.687 58.8351 40.3449Z" fill="#F00500"/>
<path d="M46.6988 29.2971C46.6707 29.4451 46.2313 29.8888 45.7918 30.2124C44.5015 31.1461 42.192 32.0152 39.8451 32.4312C38.508 32.6716 37.171 32.7085 36.7689 32.5144C36.5071 32.385 36.4697 32.2833 36.5632 31.9504C36.7596 31.2571 37.3954 30.499 38.3865 29.7871C38.8914 29.4266 40.9391 28.197 41.8928 27.6793C43.4636 26.8287 44.7352 26.3202 45.5955 26.2001C45.8666 26.1631 46.1939 26.1538 46.2967 26.2001C46.465 26.2648 46.652 26.7548 46.7268 27.3464C46.7642 27.6608 46.7455 29.0475 46.6988 29.2971Z" fill="black"/>
<path d="M24.6698 32.3572C24.6137 32.4682 24.3332 32.5883 24.0153 32.6346C23.6974 32.6808 22.7249 32.6531 22.1733 32.5883C20.1911 32.3295 18.0873 31.7286 16.5538 30.989C15.6936 30.5729 15.0765 30.1569 14.6184 29.7039L14.3566 29.4358L14.3285 29.0845C14.2818 28.4743 14.2911 27.5128 14.3659 27.1708C14.4127 26.8842 14.5155 26.6068 14.6558 26.3572C14.7306 26.2648 14.7306 26.2648 15.0672 26.2648C15.4786 26.2648 15.8245 26.3295 16.3855 26.5051C17.5356 26.8565 19.2467 27.707 21.3318 28.9458C23.0522 29.9628 23.6974 30.462 24.1929 31.1461C24.5295 31.5714 24.7539 32.1723 24.6698 32.3572Z" fill="black"/>
<path d="M37.9093 45.2263C37.9093 45.254 37.7971 45.6978 37.6568 46.2247C37.5166 46.7517 37.4044 47.177 37.4044 47.1955C37.3015 47.2047 37.208 47.2139 37.1052 47.2047H36.806L36.3946 48.1662C36.1702 48.6931 35.9645 49.1831 35.9364 49.2571L35.8803 49.3865L35.684 49.0722L35.4876 48.7579V46.197L35.4128 46.2155C35.2539 46.2525 34.1225 46.4004 33.6269 46.4466C31.5792 46.65 29.5222 46.6038 27.4839 46.3172C27.1566 46.271 26.8761 46.234 26.8668 46.2432C26.8574 46.2525 26.8668 46.8441 26.8855 47.5745L26.9135 48.8873L26.7546 49.1277C26.6704 49.2571 26.5862 49.368 26.5862 49.3773C26.5582 49.405 26.4647 49.2571 26.2496 48.8318C26.0159 48.3881 25.8476 47.9166 25.726 47.4266L25.6606 47.1585L25.3707 47.177L25.0809 47.2047L25.0061 46.8626C24.9687 46.6777 24.9219 46.3911 24.9032 46.234L24.8752 45.9381L24.6321 45.7255C24.4918 45.6053 24.3516 45.4851 24.3235 45.4666C24.2768 45.4297 24.2581 45.3649 24.2581 45.3095V45.1985L25.4268 45.2078L26.5956 45.217L26.633 45.3372L26.6704 45.4574L27.0725 45.4759C27.2969 45.4851 28.0075 45.5036 28.6433 45.5221L29.8121 45.5499L30.1113 45.0876L30.4198 44.6254H30.8125L30.8032 43.6639L30.7938 42.7024L30.2796 42.4805C28.6246 41.7594 27.6522 40.9366 27.2875 39.9381C27.2127 39.7348 27.2127 39.6608 27.194 38.7363C27.1847 37.821 27.1847 37.7378 27.2501 37.5344C27.381 37.0722 27.7457 36.7116 28.2132 36.5915C28.3721 36.5452 28.7929 36.5452 30.9995 36.5452L33.5989 36.5545L33.8887 36.6932C34.2347 36.8596 34.3936 36.9797 34.59 37.2386C34.8144 37.5344 34.8799 37.7656 34.8799 38.3295C34.8799 39.1338 34.8238 39.8272 34.7396 40.1045C34.618 40.4836 34.431 40.8441 34.1973 41.1677C33.7298 41.7594 32.8789 42.3511 32.1028 42.6192L31.8784 42.7024L31.8878 43.6731L31.8971 44.6438L32.1028 44.6623L32.3086 44.6808L32.5891 45.0968L32.8602 45.5129H34.1131C34.805 45.5129 35.4128 45.5221 35.4689 45.5314C35.5624 45.5499 35.5811 45.5406 35.6746 45.3834L35.7868 45.217H36.8621C37.6662 45.18 37.9093 45.1985 37.9093 45.2263Z" fill="black"/>
<path d="M32.9719 47.8796C32.7943 47.9813 32.6727 48.0275 32.6447 48.009C32.6166 47.9998 32.4857 47.8888 32.3454 47.7871L32.093 47.5837L31.8312 47.8611C31.2608 48.4713 31.2421 48.499 31.0738 48.5082C30.812 48.536 30.7559 48.4897 30.438 48.0182C30.2697 47.7779 30.1388 47.5745 30.1388 47.5745C30.1388 47.5745 30.0173 47.556 29.877 47.5468L29.6152 47.519L29.4936 47.7686L29.3721 48.0182L29.157 47.9535C28.9887 47.8981 28.8204 47.8333 28.6615 47.7594L28.381 47.6207V47.0938L30.8681 47.103L33.3553 47.1122L33.3646 47.3619C33.374 47.6577 33.3833 47.6484 32.9719 47.8796Z" fill="black"/>
<path d="M56.3479 36.6007C56.3386 36.5637 56.3386 36.499 56.3292 36.3973C54.0852 36.1569 47.6803 36.009 41.7336 40.8626C41.7336 40.8626 39.8169 32.1723 30.8407 32.1723C21.8645 32.1723 18.5359 40.8626 18.5359 40.8626C13.5055 35.5097 6.77338 35.898 4.34234 36.2493C4.34234 36.3048 4.33298 36.3695 4.33298 36.425C4.25818 37.7655 4.29558 38.4034 4.51999 39.2447C5.22125 41.8795 7.38114 44.7825 10.7659 47.6299C16.3105 52.2894 23.8281 55.6546 29.5223 56.0429C35.4597 56.4404 44.2208 53.0105 50.0553 47.9997C50.9716 47.1954 51.8318 46.3449 52.6359 45.4389C53.2156 44.7732 54.0759 43.6269 54.0104 43.6269C53.9917 43.6269 54.0104 43.6084 54.0478 43.5899C54.0759 43.5714 54.1039 43.5436 54.0852 43.5252C54.0759 43.5159 54.0946 43.4882 54.1226 43.4789C54.1507 43.4697 54.1694 43.4512 54.16 43.4327C54.1507 43.4142 54.16 43.3957 54.1974 43.3865C54.2255 43.3772 54.2348 43.3495 54.2255 43.331C54.2161 43.3125 54.2255 43.294 54.2442 43.294C54.2629 43.294 54.2816 43.2663 54.2816 43.2478C54.2816 43.2293 54.3003 43.2016 54.319 43.2016C54.3377 43.2016 54.3564 43.1831 54.3564 43.1646C54.3844 43.0906 54.4312 43.0167 54.4779 42.952C54.6182 42.7393 55.1792 41.7501 55.254 41.5837C55.7869 40.3911 56.1235 39.3279 56.2825 38.2648C56.3386 37.7563 56.3853 36.8225 56.3479 36.6007ZM32.9725 47.8795C32.7949 47.9812 32.6733 48.0275 32.6453 48.009C32.6172 47.9997 32.4863 47.8888 32.3461 47.7871L32.0936 47.5837L31.8318 47.8611C31.2615 48.4712 31.2428 48.499 31.0744 48.5082C30.8126 48.5359 30.7566 48.4897 30.4386 48.0182C30.2703 47.7779 30.1394 47.5745 30.1394 47.5745C30.1394 47.5745 30.0179 47.556 29.8776 47.5467L29.6158 47.519L29.4943 47.7686L29.3727 48.0182L29.1577 47.9535C28.9894 47.898 28.8211 47.8333 28.6621 47.7594L28.3816 47.6207V47.0937L30.8688 47.103L33.3559 47.1122L33.3652 47.3618C33.3746 47.6577 33.3839 47.6484 32.9725 47.8795ZM37.6476 46.2154C37.5074 46.7424 37.3952 47.1677 37.3952 47.1862C37.2923 47.1954 37.1988 47.2047 37.096 47.1954H36.7968L36.3947 48.1661C36.1703 48.6931 35.9646 49.1831 35.9365 49.257L35.8804 49.3865L35.6841 49.0721L35.4877 48.7578V46.197L35.4129 46.2154C35.254 46.2524 34.1226 46.4003 33.627 46.4466C31.5794 46.65 29.5223 46.6037 27.484 46.3171C27.1567 46.2709 26.8762 46.2339 26.8669 46.2432C26.8575 46.2524 26.8669 46.8441 26.8856 47.5745L26.9136 48.8872L26.7547 49.1276C26.6705 49.2571 26.5864 49.368 26.5864 49.3772C26.5583 49.405 26.4648 49.257 26.2498 48.8318C26.016 48.388 25.8477 47.9165 25.7262 47.4265L25.6607 47.1584L25.3709 47.1769L25.081 47.2047L25.0062 46.8626C24.9688 46.6777 24.922 46.3911 24.9033 46.2339L24.8753 45.9381L24.6322 45.7255C24.4919 45.6053 24.3517 45.4851 24.3236 45.4666C24.2769 45.4296 24.2582 45.3649 24.2582 45.3094V45.1985L25.427 45.2077L26.5957 45.217L26.6331 45.3372L26.6705 45.4574L27.0726 45.4758C27.297 45.4851 28.0076 45.5036 28.6434 45.5221L29.8122 45.5498L30.1114 45.0876L30.4199 44.6253H30.8127L30.8033 43.6638L30.7939 42.7024L30.2797 42.4805C28.6247 41.7594 27.6523 40.9366 27.2876 39.9381C27.2128 39.7347 27.2128 39.6607 27.1941 38.7362C27.1848 37.821 27.1848 37.7378 27.2502 37.5344C27.3811 37.0721 27.7458 36.7116 28.2133 36.5914C28.3723 36.5452 28.793 36.5452 30.9997 36.5452L33.599 36.5544L33.8888 36.6931C34.2348 36.8595 34.3938 36.9797 34.5901 37.2386C34.8145 37.5344 34.88 37.7655 34.88 38.3295C34.88 39.1338 34.8239 39.8272 34.7397 40.1045C34.6182 40.4835 34.4312 40.8441 34.1974 41.1677C33.7299 41.7594 32.879 42.351 32.103 42.6191L31.8786 42.7024L31.8879 43.6731L31.8973 44.6438L32.103 44.6623L32.3087 44.6808L32.5892 45.0968L32.8603 45.5128H34.1133C34.8052 45.5128 35.4129 45.5221 35.469 45.5313C35.5625 45.5498 35.5812 45.5406 35.6747 45.3834L35.7869 45.217H36.8622C37.6944 45.217 37.9375 45.2262 37.9375 45.254C37.9094 45.2447 37.7879 45.6977 37.6476 46.2154Z" fill="white"/>
<path d="M56.2729 35.6577C56.2542 35.2416 56.2168 34.6592 56.1887 34.3726C55.7867 30.1754 54.702 26.7455 52.645 23.1122C52.5609 22.9735 52.4861 22.8349 52.4393 22.7239C52.4206 22.6962 52.4113 22.6685 52.4019 22.65C52.6918 21.7902 53.8792 18.1939 54.8236 14.0799C56.1046 8.49588 56.918 1.96892 54.4309 0.00898172C54.4309 0.00898172 50.1298 -0.305348 44.3701 5.27863C42.8086 6.82254 41.3781 8.49588 40.1064 10.2802L39.7044 10.1507C37.3855 9.40189 34.9825 8.93964 32.5609 8.78248C31.8315 8.72701 29.1106 8.72701 28.2224 8.78248C25.5389 8.95813 23.4819 9.35567 21.1443 10.16C21.0508 10.197 20.9667 10.2247 20.8825 10.2524C19.5641 8.47739 18.0962 6.8133 16.4786 5.28787C10.4851 -0.323837 6.0251 -0.000263835 6.0251 -0.000263835C3.38835 2.02439 4.28596 8.84719 5.65109 14.6161C6.5487 18.4343 7.65202 21.7902 8.06343 23.0013C8.03538 23.066 7.99798 23.14 7.96058 23.2047C5.78199 27.5683 4.60387 31.7748 4.32336 36.2493C6.76376 35.898 13.4865 35.5005 18.5263 40.8626C18.5263 40.8626 21.8549 32.1723 30.8311 32.1723C39.8072 32.1723 41.724 40.8626 41.724 40.8626C47.6707 36.009 54.0756 36.1661 56.3196 36.3973C56.3103 36.2124 56.2916 35.935 56.2729 35.6577ZM9.83061 19.5159C9.83061 19.5159 6.33365 10.8718 7.23126 5.93502C7.38087 5.10297 7.66137 4.37262 8.10083 3.81792C8.10083 3.81792 12.0653 4.20621 18.4608 11.2324C18.4608 11.2324 17.2453 11.8148 15.6184 13.0537C15.6184 13.0537 15.609 13.0629 15.5997 13.0629C13.8325 14.4034 11.5697 16.5298 9.83061 19.5159ZM24.6693 32.3572C24.6132 32.4682 24.3327 32.5883 24.0148 32.6346C23.6969 32.6808 22.7245 32.653 22.1728 32.5883C20.1906 32.3295 18.0868 31.7286 16.5534 30.989C15.6932 30.5729 15.076 30.1569 14.6179 29.7039L14.3561 29.4358L14.328 29.0845C14.2813 28.4743 14.2906 27.5128 14.3654 27.1708C14.4122 26.8842 14.515 26.6068 14.6553 26.3572C14.7301 26.2648 14.7301 26.2648 15.0667 26.2648C15.4781 26.2648 15.8241 26.3295 16.3851 26.5051C17.5351 26.8564 19.2462 27.707 21.3313 28.9458C23.0517 29.9628 23.6969 30.462 24.1925 31.1461C24.5291 31.5714 24.7535 32.1723 24.6693 32.3572ZM46.6983 29.2971C46.6702 29.445 46.2308 29.8888 45.7913 30.2124C44.501 31.1461 42.1915 32.0151 39.8446 32.4312C38.5076 32.6715 37.1705 32.7085 36.7684 32.5144C36.5066 32.3849 36.4692 32.2832 36.5627 31.9504C36.7591 31.2571 37.3949 30.499 38.386 29.7871C38.8909 29.4265 40.9386 28.197 41.8923 27.6792C43.4632 26.8287 44.7348 26.3202 45.595 26.2C45.8661 26.1631 46.1934 26.1538 46.2962 26.2C46.4646 26.2648 46.6516 26.7547 46.7264 27.3464C46.7638 27.6608 46.7451 29.0475 46.6983 29.2971ZM45.1462 13.0537L45.1275 13.0444C43.5567 11.8056 42.3785 11.2232 42.3785 11.2232C48.559 4.19696 52.3832 3.80867 52.3832 3.80867C52.804 4.37262 53.0751 5.09373 53.2247 5.92578C54.0943 10.8626 50.7189 19.5159 50.7189 19.5159C49.307 17.029 47.4089 14.8287 45.1462 13.0537Z" fill="#FFA409"/>
<path d="M53.2346 5.92582C52.5053 5.83337 49.055 5.81488 45.1467 13.0537L45.128 13.0445C43.5572 11.8056 42.379 11.2232 42.379 11.2232C48.5595 4.197 52.3837 3.80872 52.3837 3.80872C52.8138 4.37266 53.085 5.09377 53.2346 5.92582Z" fill="#FF9300"/>
<path d="M50.7284 19.516C49.3072 17.0198 47.4185 14.8288 45.1464 13.0537C49.0547 5.8149 52.4956 5.83339 53.2343 5.92584C54.1038 10.8719 50.7284 19.516 50.7284 19.516Z" fill="#FF8300"/>
<path d="M53.3747 5.95352C53.328 5.94427 53.2812 5.93503 53.2345 5.92578L53.3747 5.95352Z" fill="#FF8300"/>
<path d="M18.4618 11.2232C18.4618 11.2232 17.2463 11.8056 15.6194 13.0445C15.6194 13.0445 15.61 13.0537 15.6006 13.0537C11.552 5.80563 7.98961 5.83337 7.2229 5.92582C7.3725 5.09377 7.65301 4.36342 8.09247 3.80872C8.10182 3.80872 12.0663 4.197 18.4618 11.2232Z" fill="#FF9300"/>
<path d="M15.6102 13.0537C13.8336 14.4035 11.5709 16.5206 9.83177 19.516C9.83177 19.516 6.33481 10.8719 7.23242 5.92584C7.98979 5.83339 11.5615 5.8149 15.6102 13.0537Z" fill="#FF8300"/>
<path d="M7.23188 5.92584C7.18512 5.93509 7.12903 5.94433 7.08228 5.95358L7.23188 5.92584Z" fill="#FF8300"/>
<path d="M41.2667 24.3141C41.2667 24.3141 38.2747 24.499 38.6487 22.1878C39.0227 19.8765 41.3602 19.5992 42.0147 19.6916C42.6693 19.7841 45.2873 20.7086 44.8198 22.65C44.3523 24.5915 43.6978 24.2217 43.3238 24.3141C42.9498 24.4066 41.2667 24.3141 41.2667 24.3141Z" fill="white"/>
<path d="M19.2003 24.3141C19.2003 24.3141 16.2083 24.499 16.5823 22.1878C16.9563 19.8765 19.2938 19.5992 19.9483 19.6916C20.6029 19.7841 23.2209 20.7086 22.7534 22.65C22.2859 24.5915 21.6314 24.2217 21.2574 24.3141C20.8834 24.4066 19.2003 24.3141 19.2003 24.3141Z" fill="white"/>
</svg>
