<svg width="61" height="60" viewBox="0 0 61 60" fill="none" xmlns="http://www.w3.org/2000/svg">
<g clip-path="url(#clip0_6024_1415)">
<path d="M30.4286 60C46.9971 60 60.4286 46.5685 60.4286 30C60.4286 13.4315 46.9971 0 30.4286 0C13.86 0 0.428589 13.4315 0.428589 30C0.428589 46.5685 13.86 60 30.4286 60Z" fill="#3D8130"/>
<path d="M41.855 39.774L41.8427 39.7617L41.855 39.774Z" fill="#3D8130"/>
<path d="M18.2528 23.7891L16.9052 26.4141L15.5106 29.168L14.5262 31.7461L13.87 34.4883L13.4598 37.4883L13.2137 40.0781L12.9325 41.7773L13.2137 43.1016L13.6942 44.2383L14.5848 45.8086L16.6473 47.0977L18.1708 47.6953C18.5458 47.8125 18.9442 47.9297 19.2841 48.0352L21.0887 48.3633L23.6669 48.4805H25.7997C26.0458 48.4805 28.202 48.3633 28.2137 48.3516L30.9559 48.3984L33.6044 48.0703L34.7528 47.5898L35.538 46.6523L35.5731 45.4102C35.5262 45.3047 35.3739 44.9062 35.327 44.7539C35.2919 44.6484 34.7645 44.0273 34.2841 43.4883L34.2723 43.4766C34.0614 43.1719 33.7216 42.6445 33.7216 42.4687C33.7216 42.293 33.9325 41.7773 33.9794 41.6836L34.0028 41.6367L35.1044 41.3203L35.8309 41.8477L36.4872 41.4844L37.2255 40.7461L38.5145 39.7969L39.6864 39.1289L40.6122 38.9531L41.8309 39.7852L41.7489 39.6914L42.2528 39.2461L42.7216 38.4727V37.6641L42.6278 37.4297L42.0301 37.9102L40.9637 38.2148H40.9403L39.2997 38.1797L36.9208 38.4258L36.1708 38.5078L35.5966 38.4258L34.0614 38.2148L32.327 37.8867L29.5262 37.4297H29.5145L26.8309 36.3164L24.4755 34.957L23.0341 33.9844L22.8934 33.293L23.0809 32.6484L23.6552 32.2266L24.9911 32.5312L27.9091 33.4336C29.3387 33.7266 31.5184 34.1602 31.6591 34.1719C31.7294 34.1719 32.0106 34.2187 32.7137 34.3359C33.4637 34.4531 34.495 34.6289 34.7059 34.6289C35.0692 34.6289 37.87 34.7812 38.0341 34.793C38.1864 34.793 40.4598 34.7461 40.7059 34.7461C40.87 34.7461 41.7489 34.4531 42.2762 34.2656L43.0731 33.3164L43.8348 31.9922C43.8817 31.6055 43.8348 31.2187 43.6942 30.8555C43.5067 30.3633 43.1551 29.9414 42.7098 29.6602C42.4755 30.1055 42.1708 30.3867 41.8192 30.5156C41.6903 30.5625 41.538 30.5859 41.3973 30.5859C41.1864 30.5859 40.9755 30.5391 40.7997 30.4453L40.9169 30.2344C41.1747 30.3633 41.4677 30.3867 41.7489 30.293C42.0653 30.1758 42.3348 29.8945 42.5458 29.4609C42.288 29.5547 42.0067 29.6133 41.7255 29.6133C41.5497 29.6133 41.3739 29.6016 41.1981 29.5547L41.2216 29.4375L41.245 29.3203C41.2567 29.3203 42.1591 29.543 42.8387 29.0156C43.3192 28.6523 43.5887 27.9961 43.6356 27.0937L42.8505 28.0195L41.9012 28.4531C41.4794 28.5586 40.0731 28.9102 39.9442 28.9102C39.8973 28.9102 39.7098 28.8867 39.2528 28.8047C38.6786 28.7109 37.8231 28.582 37.6005 28.582C37.202 28.582 36.6395 28.1484 36.5809 28.1016L36.5106 28.0547L36.9559 26.7539L38.1864 25.3594L39.4872 24.4336H41.1044L42.6278 24.5977L43.2841 25.3477L43.6005 25.8164V24.5508L42.3348 24.0938C42.1942 24.0703 40.9403 23.8945 40.6356 23.8945C40.3427 23.8945 39.2176 24.0703 39.0301 24.0938L37.4012 25.1484L37.2723 24.9492L38.9364 23.8711H38.9598C39.0184 23.8594 40.2841 23.6602 40.6239 23.6602C40.952 23.6602 42.3114 23.8594 42.37 23.8711L42.3934 23.8828L43.7645 24.3867L43.8934 24.457L43.9051 24.3633L43.2606 23.8008L42.1005 23.2383L40.6942 23.1211L39.077 23.4023L38.4325 23.6836L38.3387 23.4609L39.0184 23.168L40.6825 22.875L42.1591 23.0039L42.2177 23.0391L41.7723 22.3477L40.5184 21.2461L40.5302 21.2344L35.6552 21.375C35.6552 21.375 35.0223 21.457 34.2958 21.5508L34.9872 22.5469L35.3387 23.168L35.163 23.7891L34.9286 23.7187L35.0809 23.1914L34.7762 22.6641L34.038 21.5977L34.0848 21.5625C33.1708 21.6797 32.1981 21.7969 32.1395 21.7969C32.0341 21.7969 28.12 22.0898 27.9559 22.0898C27.6278 22.0664 27.2997 22.0312 26.9833 21.9609C26.9247 21.9258 24.3114 20.9766 24.2177 20.918C24.1239 20.8594 23.2098 19.9805 23.2098 19.9805L21.4286 19.4297L19.87 21.3516L18.2528 23.7891ZM37.2723 29.168C37.5067 29.2734 37.7177 29.4023 37.9403 29.5312L39.2762 29.6836L40.038 29.5195L40.0848 29.7539L39.288 29.918L38.3622 29.8125C38.7606 30.1055 39.1239 30.4336 39.452 30.8086C39.6864 31.0781 39.8973 31.3711 40.0731 31.6758L39.8622 31.793C39.6512 31.4414 39.4052 31.1016 39.1122 30.8086C38.7255 30.4102 38.2919 30.0469 37.8231 29.7539L37.1434 29.3672L37.2723 29.168ZM23.8778 24.7852L24.9442 23.7656L25.87 23.0039L27.1942 22.7461L28.5887 22.6992H30.077L31.3075 22.7461L33.8036 22.793L34.5887 23.2734L35.5497 24.1523L36.1005 24.832L36.3583 26.2148L36.1239 26.2617L35.8778 24.9375L35.3739 24.3047L34.4481 23.4609L33.745 23.0273L31.788 22.9922L32.6434 23.4609C33.1005 23.6953 33.8856 24.1172 33.9677 24.293C34.0262 24.3867 34.6473 24.9961 35.2216 25.5352L35.2333 25.5469L36.1122 26.6836L36.2411 27.6211L36.0067 27.6562L35.8895 26.7891L35.0575 25.7109C34.7645 25.4414 33.8505 24.5742 33.7684 24.4102C33.6981 24.3164 33.0887 23.9648 32.5497 23.6836L31.2958 22.9922L30.0887 22.957H28.6122L27.2294 22.9922L25.9989 23.2266L25.12 23.9414L24.1239 24.9023L24.0184 25.5352L24.2294 25.7227L24.7567 25.4414L25.6239 24.3633L27.1942 23.7656L29.2333 23.5547L30.9559 23.7187L33.1942 24.8789L34.12 25.4297L35.0106 26.6133L35.4208 27.9023L36.0184 28.2891V28.8164L35.4676 29.3203L34.4833 29.7305L34.0614 30.082L33.6161 30.8086L33.3934 31.1719L33.37 31.1836C33.077 31.3359 32.5614 31.6055 32.4208 31.6055C32.3153 31.6289 31.6591 31.9219 31.0731 32.2148L31.0145 32.2266C30.9677 32.2383 29.9364 32.5547 29.6786 32.6016L29.6434 32.3672C29.8661 32.332 30.8387 32.0391 30.9325 32.0039C31.5184 31.7227 32.245 31.3828 32.3739 31.3828C32.6552 31.2773 32.9247 31.1484 33.1942 30.9961L33.2997 30.8203L33.8387 29.9414L33.9677 29.8359C33.5927 29.8008 33.1005 29.7422 32.9716 29.6719C32.913 29.6484 32.5614 29.6016 30.7216 29.6016C30.2645 29.6016 29.1864 29.3555 29.0341 29.3086C28.9169 29.2734 27.8153 28.9453 27.8036 28.9453L27.7802 28.9336L27.7567 28.9102C27.745 28.8984 26.7255 27.9258 25.9755 27.4922L26.0927 27.2812C26.8192 27.7031 27.745 28.5703 27.9091 28.7227C28.0848 28.7695 28.9989 29.0508 29.1161 29.0859C29.245 29.1328 30.2997 29.3672 30.7216 29.3672C32.9364 29.3672 33.0302 29.4258 33.0887 29.4727C33.1708 29.5195 33.6981 29.5781 34.1434 29.6133L34.1317 29.6953L34.3075 29.543L35.2919 29.1328L35.7255 28.7344V28.4414L35.4208 28.2422L35.4325 28.2773L34.413 28.6523L33.0067 28.8164C32.9364 28.8164 32.6317 28.8281 32.2919 28.8281C31.8934 28.8281 31.4598 28.8164 31.3309 28.7695C31.1434 28.7109 29.9598 28.4531 29.3739 28.3242H29.3622L29.3505 28.3125C28.6122 27.9141 27.6981 27.4102 27.6278 27.2812C27.5692 27.2109 27.1122 26.9766 26.7255 26.7891H26.7137L25.413 26.0273L25.2372 26.0625L25.2137 25.9102L24.8036 25.6758L24.1708 26.0156L23.7255 25.6289L23.8778 24.7852ZM24.4169 30.3984L24.4755 30.6328L23.6786 30.8203L23.2802 30.9141L23.2567 30.8203L23.2216 30.6797L24.4169 30.3984ZM24.9208 31.5117L24.8622 31.7461C24.5927 31.6875 24.3114 31.6992 24.0419 31.7461C23.5966 31.8281 22.9403 32.0859 22.3075 32.8125L22.1317 32.6602C23.4325 31.1367 24.8622 31.4883 24.9208 31.5117Z" fill="#3D8130"/>
<path d="M26.5262 25.582C26.5966 25.5703 28.2606 25.3711 28.4716 25.3711C28.5536 25.3711 28.788 25.3945 29.0927 25.418C29.5028 25.4531 30.1942 25.5117 30.2997 25.5C30.4637 25.4531 32.1044 25.3125 32.2919 25.2891L33.2645 25.2187L33.0653 25.1016L30.8739 23.9648L29.2216 23.8008L27.2294 24L25.7528 24.5625L25.0028 25.5L25.4833 25.7812L26.5262 25.582Z" fill="#3D8130"/>
<path d="M32.3036 25.5352C31.577 25.6055 30.4637 25.7109 30.3466 25.7344C30.2411 25.7578 29.8661 25.7344 29.0692 25.6641C28.7997 25.6406 28.5419 25.6172 28.4716 25.6172C28.3075 25.6172 27.0419 25.7695 26.5614 25.8164L25.788 25.957L26.8427 26.5781C27.1708 26.7305 27.7333 27.0117 27.827 27.1523C27.9208 27.2461 28.7177 27.7031 29.4559 28.1016C29.6434 28.1367 31.1903 28.4766 31.4247 28.5586C31.5887 28.6172 32.4911 28.6055 33.0184 28.5937L34.4012 28.4297L35.2333 28.1133L35.1864 28.0898L34.7645 26.7539L33.9325 25.6406L33.4403 25.3477L33.452 25.4648L32.3036 25.5352Z" fill="#3D8130"/>
<path d="M43.1317 25.4414L42.5458 24.7852L41.1161 24.6211H39.5927L38.3622 25.5L37.1903 26.8242L36.8153 27.9141C37.0028 28.0547 37.3778 28.2891 37.6239 28.2891C37.87 28.2891 38.6669 28.418 39.3114 28.5234C39.6161 28.5703 39.9208 28.6172 39.9677 28.6172C40.0731 28.6055 41.1747 28.3359 41.8544 28.1719L42.7216 27.7734L43.413 26.9766L43.3544 26.6016L41.2216 25.7344L38.4911 25.6523L38.5028 25.418L41.2802 25.5L43.577 26.4375L43.6708 27.0352C43.6708 27 43.6708 26.9648 43.6708 26.9297V26.2734L43.1317 25.4414Z" fill="#3D8130"/>
<path d="M40.577 39.1875L39.7801 39.3398L38.6552 39.9844L37.3895 40.9219L37.038 41.2734L37.8348 41.8359L37.8934 42.2812L37.3544 42.8203L37.1903 42.6563L37.6473 42.1992L37.6239 41.9766L36.8739 41.4492L36.6512 41.6719L36.1825 41.9297L36.0536 42.5625L36.7098 43.1367L37.6591 43.1016C37.8348 42.9727 38.1278 42.7852 38.2684 42.7734C38.4091 42.6914 38.5497 42.5977 38.6786 42.4922C38.995 42.2461 39.1239 42.1641 39.2177 42.1641C39.4989 42.0234 39.7684 41.8711 40.0262 41.6953L40.0614 41.6719L41.2098 41.8008L41.6083 42.1992L41.5262 42.2812C41.2802 42.5508 40.9989 42.9023 40.9872 42.9844C40.9872 43.043 40.9755 43.1016 40.952 43.1484L41.2216 42.9961L42.4872 42.0938L42.6278 42.293L41.3387 43.207L40.7411 43.5352C40.7177 43.5703 40.6942 43.6055 40.6825 43.6172L40.6356 43.582L39.7216 44.0859L39.0887 45L38.8661 45.5391L39.3231 46.1836L39.827 46.7578L40.4247 46.8281L40.9755 46.7109L40.9637 46.5938L41.5731 45.6328L42.7216 44.5195L42.8856 44.6953L41.7489 45.7969L41.1981 46.6523L41.2333 47.2969L41.8192 47.6953L42.5926 47.7773L43.0262 47.6484L42.9442 47.5195L43.0028 47.4492C43.0262 47.4141 43.6591 46.6992 43.788 46.582C43.8817 46.4883 44.4208 45.8672 44.6903 45.5625L44.8661 45.7148C44.8309 45.75 44.0809 46.6289 43.952 46.7461C43.8583 46.8398 43.4012 47.3438 43.2372 47.5313L43.6473 48.1406H44.3387L44.9364 47.8711L45.4286 47.1445L46.0848 46.4414L46.2606 46.6055L45.6044 47.2969L45.1005 48.0586L44.3856 48.375H43.5184L43.1552 47.8359L42.6044 48L41.7255 47.918L40.9989 47.4141L40.9755 46.9453L40.4247 47.0625L39.6981 46.9687L39.1473 46.3359L38.327 45.8438L37.4716 44.8945L37.2606 43.418L37.495 43.3828L37.6708 44.6484L38.6903 43.8398L39.7919 42.7852L40.4247 41.918L40.12 41.8828C39.7802 42.1055 39.3817 42.3516 39.2411 42.375C39.1005 42.457 38.9598 42.5508 38.8309 42.6563C38.5028 42.9023 38.3739 42.9844 38.2919 42.9844C38.1161 43.0664 37.9403 43.1719 37.788 43.2891L37.7528 43.3125L36.6395 43.3594L35.8075 42.6211L35.9247 42.0586L35.8427 42.1055L35.0926 41.5664L34.2137 41.8242C34.12 42.0352 34.0497 42.2461 34.0028 42.4688C34.0145 42.5625 34.2723 42.9961 34.5067 43.3359C34.8231 43.6875 35.5497 44.5195 35.5966 44.6953C35.6317 44.8242 35.7841 45.1992 35.8427 45.3398L35.8544 45.3633L35.8192 46.957L36.2762 47.6367C36.5106 47.7773 38.2333 48.7852 38.4325 48.9023C38.5731 48.9844 39.8153 49.3359 40.577 49.5469L43.1434 49.793L45.2059 49.5117L46.9755 48.7031L47.9364 47.7773L47.7137 46.957L46.5301 44.7539L45.6747 43.4531L44.1864 41.8359L41.995 40.6289L41.6669 39.9258L40.577 39.1875Z" fill="#3D8130"/>
<path d="M42.4403 34.4414L42.4052 34.4531C42.1708 34.5352 40.9755 34.957 40.7177 34.957C40.4716 34.957 38.0692 34.9922 38.0458 35.0039C38.0106 35.0039 35.0809 34.8398 34.7177 34.8398C34.4833 34.8398 33.5341 34.6875 32.6903 34.5469C32.2216 34.4648 31.7411 34.3945 31.6708 34.3945C31.5067 34.3945 28.4716 33.7734 27.8622 33.6563H27.8505L24.9325 32.7539L23.7137 32.4844L23.2919 32.8008L23.1512 33.3047L23.2567 33.8437L24.6161 34.7578L26.9481 36.1055L29.5966 37.207L32.3739 37.6523L34.1083 37.9805L36.1825 38.2617L39.2997 37.9336H39.3114L40.9403 37.9688L41.9247 37.6875L42.7567 37.0195L43.4364 35.9766L43.5887 35.4961L43.3661 34.957C42.3817 35.8477 42.2762 35.8828 42.2177 35.8945L41.2098 36.1406L38.4091 36.2695H38.3973L35.4677 36.1055L32.5614 35.5781L30.2177 35.625H30.2059L27.7684 35.0039L25.6122 34.2539L24.4637 33.5508L24.5927 33.3516L25.7294 34.043L27.8505 34.7812L30.2528 35.3906L32.5966 35.3438H32.6083L35.5145 35.8711L38.4208 36.0352L41.1981 35.918L42.1708 35.6719C42.2294 35.6484 42.5575 35.3906 43.2489 34.7578C43.3427 34.6758 43.4012 34.6172 43.4247 34.5938L44.3153 33.375L44.62 32.8008C44.5731 32.6016 44.5262 32.4141 44.5028 32.2148C44.3856 32.0273 44.2567 31.8633 44.1044 31.6992C44.1044 31.8047 44.1044 31.9102 44.0809 32.0156V32.0391L43.2723 33.4336L42.4403 34.4414Z" fill="#983B1F"/>
<path d="M47.9012 46.875L46.7059 44.6484L45.8387 43.3242L44.3387 41.6484L42.1708 40.4648L41.8544 39.7852L41.7958 39.8203C41.7958 39.8203 41.995 40.5469 42.1356 40.6172C42.2762 40.6875 44.1512 41.6484 44.245 41.6953C44.3387 41.7422 45.9677 43.6875 45.9677 43.6875L47.2802 45.9727L48.0653 47.7305C48.0653 47.7305 47.0575 48.7617 46.9989 48.7734C46.9403 48.7852 44.995 49.7344 44.9364 49.7344C44.8778 49.7344 42.9911 49.9453 42.8856 49.9219C42.7801 49.8867 40.4598 49.6875 40.2841 49.6758C40.0966 49.6641 37.952 48.8086 37.952 48.8086L36.1005 47.6953L35.5731 46.875L34.8348 47.707C34.8348 47.707 33.7919 48.2344 33.6512 48.2344C33.5106 48.2344 30.9559 48.5742 30.7567 48.5742H25.6122C25.6122 48.5742 20.5262 48.4805 20.3036 48.375C20.2333 48.3398 19.8231 48.2109 19.2841 48.0352L18.8505 47.9531L18.1708 47.6953C17.3387 47.4375 16.5887 47.2148 16.5887 47.2148L14.4911 45.8555C14.4911 45.8555 13.6122 44.332 13.577 44.25C13.5419 44.168 13.0028 42.8906 13.0028 42.832C13.0028 42.7734 12.8153 41.7539 12.8153 41.7539L13.1903 39.4219L13.3544 36.9727L13.7528 34.3008C13.7528 34.3008 14.4208 31.6172 14.4325 31.5C14.4442 31.3711 15.5223 28.7227 15.5223 28.7227L16.6591 26.6719L18.1591 23.5781L19.8114 21.2461L21.4169 19.3359L21.5223 19.3711L21.3348 19.2188L19.7762 21.1523L18.0419 23.6719L16.6825 26.3203L15.288 29.0625L14.2919 31.6641L13.6239 34.4297L13.2137 37.4531L12.9677 40.043L12.6747 41.7891L12.9677 43.1719L13.4716 44.3438L14.3973 45.9844L16.5184 47.3203L18.7567 48.1992L21.0419 48.6211L23.6552 48.75H25.788C26.0341 48.75 28.0848 48.6328 28.2137 48.6211L30.9677 48.668H30.9794L33.663 48.3398H33.6747L34.9052 47.8242L35.538 47.0625L36.0653 47.8477L36.0887 47.8594C36.1122 47.8711 38.0692 49.0078 38.2684 49.1367C38.4794 49.2656 40.2723 49.7578 40.4833 49.8047L43.1083 50.0508L45.2177 49.7578H45.2294L47.0575 48.9258L47.0809 48.9141L48.1708 47.8594L47.9012 46.875Z" fill="black"/>
<path d="M19.8114 21.2461L18.1591 23.5781L16.6591 26.6719L15.5223 28.7227C15.5223 28.7227 14.4442 31.3711 14.4325 31.5C14.4208 31.6289 13.7528 34.3008 13.7528 34.3008L13.3544 36.9727L13.1903 39.4219L12.8153 41.7539C12.8153 41.7539 13.0028 42.7734 13.0028 42.832C13.0028 42.8906 13.5419 44.168 13.577 44.25C13.6122 44.332 14.4911 45.8555 14.4911 45.8555L16.5887 47.2148C16.5887 47.2148 17.3387 47.4375 18.1708 47.6953L16.6473 47.0977L14.5848 45.8086L13.6942 44.2383L13.2137 43.1016L12.9325 41.7773L13.2137 40.0781L13.4598 37.4883L13.87 34.4883L14.5262 31.7461L15.5106 29.168L16.9052 26.4141L18.2528 23.7891L19.9755 21.293L21.5341 19.3711L21.4286 19.3359L19.8114 21.2461Z" fill="black"/>
<path d="M40.6239 38.9414L39.6981 39.1172L38.5262 39.7852L37.2372 40.7344L36.4989 41.4727L35.8427 41.8359L35.1161 41.3086L34.0145 41.625L33.9911 41.6719C33.9442 41.7773 33.7333 42.2812 33.7333 42.457C33.7333 42.6328 34.0848 43.1719 34.2841 43.4648L34.2958 43.4766C34.7762 44.0156 35.3036 44.6367 35.3387 44.7422C35.3739 44.8945 35.538 45.293 35.5848 45.3984L35.5497 46.6406L34.7645 47.5781L33.6161 48.0586L30.9677 48.3867L28.2255 48.3398C28.202 48.3398 26.0458 48.4688 25.8114 48.4688H23.6786L21.1005 48.3516L19.2958 48.0234C19.8231 48.1875 20.245 48.3281 20.3153 48.3633C20.5262 48.4688 25.6239 48.5625 25.6239 48.5625H30.7684C30.9677 48.5625 33.5341 48.2227 33.663 48.2227C33.8036 48.2227 34.8466 47.6953 34.8466 47.6953L35.5848 46.8633L36.1122 47.6836L37.9637 48.7969C37.9637 48.7969 40.1083 49.6406 40.2958 49.6641C40.4833 49.6758 42.7919 49.875 42.8973 49.9102C43.0028 49.9453 44.8895 49.7227 44.9481 49.7227C45.0067 49.7227 46.952 48.7852 47.0106 48.7617C47.0692 48.75 48.077 47.7188 48.077 47.7188L47.2919 45.9609L45.9794 43.6758C45.9794 43.6758 44.3505 41.7305 44.2567 41.6836C44.163 41.6367 42.288 40.6758 42.1473 40.6055C42.0067 40.5352 41.8075 39.8086 41.8075 39.8086L41.8661 39.7734V39.7617L40.6239 38.9414ZM41.9833 40.6289L44.1747 41.8359L45.6395 43.4531L46.495 44.7539L47.6786 46.957L47.9012 47.7773L46.9403 48.7031L45.1708 49.5117L43.1083 49.793L40.5419 49.5469C39.7801 49.3359 38.538 48.9844 38.3973 48.9023C38.1981 48.7852 36.4755 47.7773 36.2411 47.6367L35.7841 46.957L35.8192 45.3633V45.3516C35.7606 45.2109 35.6083 44.8359 35.5731 44.707C35.5262 44.5313 34.7997 43.6992 34.4833 43.3477C34.2489 42.9961 33.9794 42.5625 33.9794 42.4805C34.0262 42.2578 34.0966 42.0469 34.1903 41.8359L35.0692 41.5781L35.8192 42.1172L35.9012 42.0703L35.7841 42.6328L36.6161 43.3711L37.7294 43.3242L37.7645 43.3008C37.9169 43.1836 38.0927 43.0781 38.2684 42.9961C38.3622 42.9961 38.4794 42.9141 38.8075 42.668C38.9364 42.5625 39.077 42.4688 39.2177 42.3867C39.3583 42.375 39.7684 42.1172 40.0966 41.8945L40.4012 41.9297L39.7684 42.7969L38.6669 43.8516L37.6473 44.6602L37.4716 43.3945L37.2372 43.4297L37.4481 44.9063L38.3036 45.8555L39.1239 46.3477L39.6747 46.9805L40.4012 47.0742L40.952 46.957L40.9755 47.4258L41.702 47.9297L42.5809 48.0117L43.1317 47.8477L43.495 48.3867H44.3622L45.077 48.0703L45.5809 47.3086L46.2372 46.6172L46.0614 46.4531L45.4051 47.1562L44.913 47.8828L44.3153 48.1523H43.6239L43.2137 47.543C43.3778 47.3555 43.8348 46.8516 43.9286 46.7578C44.0575 46.6289 44.8075 45.7617 44.8427 45.7266L44.6669 45.5742C44.3973 45.8906 43.8583 46.5 43.7645 46.5938C43.6356 46.7227 43.0028 47.4375 42.9794 47.4609L42.9208 47.5313L43.0028 47.6602L42.5692 47.7891L41.7958 47.707L41.2098 47.3086L41.1747 46.6641L41.7255 45.8086L42.8622 44.707L42.6981 44.5313L41.5497 45.6445L40.9403 46.6055L40.952 46.7227L40.4012 46.8398L39.8036 46.7695L39.2997 46.1953L38.8426 45.5508L39.0653 45.0117L39.6981 44.0977L40.6122 43.5938L40.6591 43.6289C40.6708 43.6055 40.6942 43.582 40.7176 43.5469L41.3153 43.2187L42.6044 42.3047L42.4637 42.1055L41.1981 43.0078L40.9286 43.1602C40.952 43.1133 40.9637 43.0547 40.9637 42.9961C40.9755 42.9023 41.2567 42.5625 41.5028 42.293L41.5848 42.2109L41.1864 41.8125L40.038 41.6836L40.0028 41.707C39.745 41.8828 39.4755 42.0469 39.1942 42.1758C39.1005 42.1758 38.9716 42.2695 38.6552 42.5039C38.5262 42.6094 38.3856 42.7031 38.245 42.7852C38.1044 42.7969 37.8231 42.9844 37.6356 43.1133L36.6864 43.1484L36.0301 42.5742L36.1591 41.9414L36.6278 41.6836L36.8505 41.4609L37.6005 41.9883L37.6239 42.2109L37.1669 42.668L37.3309 42.832L37.87 42.293L37.8114 41.8477L37.0145 41.2852L37.3661 40.9336L38.6317 39.9961L39.7567 39.3516L40.5536 39.1992L41.6317 39.9375L41.9833 40.6289ZM38.7723 45.8672L38.4559 45.6797L37.7528 44.9063L38.8309 44.0625L39.9442 42.9844L40.6708 41.9766L41.0809 42.0234L41.2567 42.1992C41.0341 42.4453 40.7294 42.8086 40.7294 42.9727C40.6942 43.1133 40.6239 43.2422 40.5419 43.3477L39.5223 43.9102L38.8426 44.8828L38.5614 45.5859L38.7723 45.8672Z" fill="black"/>
<path d="M41.6434 21.9844L42.2411 22.7695C42.2411 22.7695 42.5341 23.2266 42.6395 23.2617C42.745 23.2969 43.7177 23.8594 43.7177 23.8594L44.1161 24.3047L44.0341 24.5625L43.7294 24.4687L43.7762 25.9805H43.87V24.6211L44.1395 24.7734L44.2098 24.1992L43.4481 23.5312L42.6278 23.1328L42.663 23.1094L42.0302 22.1133L40.7528 20.9883L40.6122 21.1523H40.7411L41.6434 21.9844Z" fill="black"/>
<path d="M43.6356 28.1602C43.6356 28.1602 43.202 29.0273 43.1552 29.0508C43.1083 29.0859 42.7216 29.25 42.7216 29.25L42.7567 29.4609C42.9325 29.5898 43.1083 29.7305 43.2606 29.8828C43.2841 29.918 43.5419 30.4336 43.7528 30.8203H43.9637C43.7645 30.2344 43.3661 29.7305 42.8387 29.4141C42.8622 29.3672 42.8856 29.3086 42.9091 29.2617C42.9442 29.2383 42.9911 29.2148 43.0262 29.1797C43.6005 28.7461 43.8934 27.9961 43.9286 26.9414V26.2031L43.788 25.9922L43.8231 27.1289L43.6356 28.1602Z" fill="black"/>
<path d="M41.8544 22.2891L42.2997 22.9805L42.2411 22.9453L40.7645 22.8164L39.1005 23.1094L38.4208 23.4023L38.5145 23.625L39.1591 23.3437L40.7762 23.0625L42.1825 23.1797L43.3427 23.7422L43.9872 24.3047L43.9755 24.3984L43.8466 24.3281L42.4755 23.8242L42.452 23.8125C42.3934 23.8008 41.0458 23.6016 40.7059 23.6016C40.3661 23.6016 39.1005 23.8008 39.0419 23.8125H39.0184L37.3544 24.8906L37.4833 25.0898L39.1122 24.0352C39.2997 24.0117 40.4247 23.8359 40.7176 23.8359C41.0223 23.8359 42.2762 24.0234 42.4169 24.0352L43.6825 24.4922V25.7812L43.3661 25.3125L42.7098 24.5625L41.1864 24.3984H39.5692L38.2684 25.3242L37.038 26.7187L36.5927 28.0195L36.663 28.0664C36.7216 28.1133 37.2841 28.5469 37.6825 28.5469C37.9051 28.5469 38.7723 28.6875 39.3348 28.7695C39.7919 28.8398 39.9794 28.875 40.0262 28.875C40.1551 28.875 41.5614 28.5234 41.9833 28.418L42.9325 27.9844L43.7176 27.0586C43.6708 27.9609 43.4012 28.6172 42.9208 28.9805C42.2294 29.5078 41.327 29.2852 41.327 29.2852L41.3036 29.4023L41.2802 29.5195C41.4559 29.5547 41.6317 29.5781 41.8075 29.5781C42.0887 29.5781 42.37 29.5312 42.6278 29.4258C42.4169 29.8594 42.1473 30.1406 41.8309 30.2578C41.5614 30.3516 41.2567 30.3281 40.9989 30.1992L40.8817 30.4102C41.0692 30.5039 41.2801 30.5508 41.4794 30.5508C41.62 30.5508 41.7606 30.5273 41.9012 30.4805C42.2528 30.3516 42.5458 30.0703 42.7919 29.625C43.2372 29.9062 43.5887 30.3281 43.7762 30.8203H43.8114C43.6122 30.4336 43.3427 29.918 43.3192 29.8828C43.1552 29.7305 42.9911 29.5898 42.8153 29.4609L42.7801 29.25C42.7801 29.25 43.1669 29.0859 43.2137 29.0508C43.2606 29.0156 43.6942 28.1602 43.6942 28.1602L43.8817 27.1406L43.8466 26.0039L43.7997 24.4922L44.1044 24.5859L44.1864 24.3281L43.788 23.8828C43.788 23.8828 42.8153 23.3086 42.7098 23.2852C42.6044 23.25 42.3114 22.793 42.3114 22.793L41.7137 22.0078L40.7997 21.1875H40.6708L40.6591 21.1992L41.8544 22.2891ZM43.6825 27.0352L43.5887 26.4375L41.2919 25.5L38.5145 25.418L38.5028 25.6523L41.2333 25.7344L43.3661 26.6016L43.4247 26.9766L42.7333 27.7734L41.8661 28.1719C41.1864 28.3359 40.0848 28.6055 39.9794 28.6172C39.9325 28.6172 39.6278 28.5703 39.3231 28.5234C38.6786 28.418 37.8817 28.2891 37.6356 28.2891C37.4012 28.2891 37.0262 28.0547 36.827 27.9141L37.202 26.8242L38.3739 25.5L39.6044 24.6211H41.1278L42.5575 24.7852L43.1434 25.4414L43.6942 26.2734V26.9297C43.6825 26.9648 43.6825 27 43.6825 27.0352Z" fill="black"/>
<path d="M36.1942 38.4844L36.9442 38.4023H35.62L36.1942 38.4844Z" fill="black"/>
<path d="M42.8622 38.4492C42.827 38.5078 42.1473 39.6094 42.1473 39.6094L41.8427 39.7734L41.913 39.8555L42.452 39.3867L42.9677 38.5195V38.4023H42.8622C42.8739 38.4258 42.8739 38.4375 42.8622 38.4492Z" fill="black"/>
<path d="M42.8622 38.4492C42.8622 38.4375 42.8739 38.4141 42.8739 38.4023H42.745V38.4492L42.2762 39.2227L41.7723 39.668L41.8544 39.7617L41.8661 39.7734L42.1708 39.6094C42.1591 39.6094 42.8387 38.5195 42.8622 38.4492Z" fill="black"/>
<path d="M43.9872 31.2656L44.0927 31.418C44.0692 31.2188 44.0341 31.0195 43.9637 30.8203H43.7528C43.8817 31.0664 43.9872 31.2656 43.9872 31.2656Z" fill="black"/>
<path d="M44.7489 32.5781C44.7372 32.6367 44.5966 33.1055 44.5614 33.1758C44.5262 33.2578 43.4247 34.7695 43.4247 34.7695L43.6825 35.2969C43.6825 35.2969 43.7294 35.6719 43.6942 35.7305C43.6591 35.7891 42.6864 37.3008 42.6864 37.3008L42.8387 37.7227C42.8387 37.7227 42.8739 38.25 42.8622 38.4141H42.9677V37.6055L42.8387 37.2539L42.9442 37.1719L43.6591 36.0703L43.8466 35.4727L43.5653 34.7812C43.5887 34.7578 43.6005 34.7461 43.6005 34.7461L44.5145 33.4922L44.8778 32.8242L44.8661 32.7773C44.8192 32.5898 44.7723 32.3906 44.7489 32.1914C44.7489 32.1445 44.7489 32.0156 44.1395 31.3711L44.0927 31.418L44.4559 31.9336C44.4559 31.9336 44.7606 32.5195 44.7489 32.5781Z" fill="black"/>
<path d="M43.7528 30.8203H43.7176C43.8583 31.1836 43.9051 31.5703 43.8583 31.957L43.0848 33.2812L42.288 34.2305C41.7489 34.418 40.87 34.7109 40.7176 34.7109C40.4716 34.7109 38.1981 34.7461 38.0458 34.7578C37.87 34.7461 35.0809 34.5938 34.7177 34.5938C34.5067 34.5938 33.4755 34.4297 32.7255 34.3008C32.0341 34.1836 31.7411 34.1367 31.6708 34.1367C31.5184 34.125 29.3505 33.6914 27.9208 33.3984L25.0028 32.4961L23.6669 32.1914L23.0927 32.6133L22.9052 33.2578L23.0458 33.9492L24.4872 34.9219L26.8426 36.2813L29.5262 37.3945H29.538L32.3387 37.8516L34.0731 38.1797L35.6083 38.3906H36.9442L39.3231 38.1445L40.9637 38.1797H40.9872L42.0536 37.875L42.6512 37.3945L42.745 37.6289V38.3906H42.8739C42.8856 38.2266 42.8505 37.6992 42.8505 37.6992L42.6981 37.2773C42.6981 37.2773 43.6708 35.7656 43.7059 35.707C43.7411 35.6484 43.6942 35.2734 43.6942 35.2734L43.4364 34.7461C43.4364 34.7461 44.5497 33.2344 44.5731 33.1523C44.6083 33.0703 44.7372 32.6133 44.7606 32.5547C44.7723 32.4961 44.4676 31.9102 44.4676 31.9102L44.1044 31.3945L43.9989 31.2422C43.9872 31.2656 43.8817 31.0664 43.7528 30.8203ZM44.0926 32.0156C44.1044 31.9102 44.1161 31.8047 44.1161 31.6992C44.2684 31.8516 44.3973 32.0273 44.5145 32.2148C44.538 32.4141 44.5731 32.6133 44.6317 32.8008L44.327 33.375L43.4364 34.5938C43.413 34.6172 43.3426 34.6758 43.2606 34.7578C42.5692 35.3906 42.2528 35.6367 42.1825 35.6719L41.2098 35.918L38.4325 36.0352L35.5262 35.8711L32.62 35.3438H32.6083L30.2645 35.3906L27.8622 34.7812L25.7411 34.043L24.6044 33.3516L24.4755 33.5508L25.6239 34.2539L27.7801 35.0039L30.2177 35.625H30.2294L32.5731 35.5781L35.4794 36.1055L38.4091 36.2695H38.4208L41.2216 36.1406L42.2294 35.8945C42.2762 35.8828 42.3934 35.8477 43.3778 34.957L43.6005 35.4961L43.4481 35.9766L42.7684 37.0195L41.9364 37.6875L40.952 37.9688L39.3231 37.9336H39.3114L36.1942 38.2617L34.12 37.9805L32.3856 37.6523L29.6083 37.207L26.9598 36.1055L24.6278 34.7578L23.2684 33.8437L23.163 33.3047L23.3036 32.8008L23.7255 32.4844L24.9442 32.7539L27.8622 33.6563H27.8739C28.4833 33.7852 31.5067 34.3945 31.6825 34.3945C31.7411 34.3945 32.2333 34.4766 32.702 34.5469C33.5458 34.6875 34.495 34.8398 34.7294 34.8398C35.0927 34.8398 38.0223 35.0039 38.0575 35.0039C38.0809 35.0039 40.4833 34.957 40.7294 34.957C40.9872 34.957 42.1825 34.5352 42.4169 34.4531L42.452 34.4414L43.2958 33.4336L44.1044 32.0391L44.0926 32.0156Z" fill="black"/>
<path d="M24.0419 31.7461C24.3114 31.6875 24.5927 31.6875 24.8622 31.7461L24.9208 31.5117C24.8622 31.5 23.4325 31.1367 22.1317 32.6602L22.3075 32.8125C22.9403 32.0742 23.5966 31.8281 24.0419 31.7461Z" fill="black"/>
<path d="M23.6669 30.8203L24.4637 30.6328L24.4169 30.3984L23.2216 30.6797L23.2567 30.8203H23.6669Z" fill="black"/>
<path d="M23.2802 30.9141L23.6669 30.8203H23.2567L23.2802 30.9141Z" fill="black"/>
<path d="M37.8466 29.7656C38.3153 30.0703 38.7489 30.4219 39.1356 30.8203H39.4637C39.1356 30.4453 38.7723 30.1172 38.3739 29.8242L39.2997 29.9297L40.0966 29.7656L40.0497 29.5312L39.288 29.6953L37.952 29.543C37.7411 29.4023 37.5184 29.2852 37.2841 29.1797L37.1786 29.3906L37.8466 29.7656Z" fill="black"/>
<path d="M39.8739 31.8047L40.0848 31.6875C39.9091 31.3828 39.6981 31.0898 39.4637 30.8203H39.1356C39.4169 31.125 39.663 31.4531 39.8739 31.8047Z" fill="black"/>
<path d="M24.8036 25.6758L25.2137 25.9102L25.2372 26.0625L25.413 26.0273L26.7137 26.7891H26.7255C27.1122 26.9766 27.5692 27.2109 27.6278 27.2812C27.7098 27.3984 28.6122 27.9023 29.3505 28.3125L29.3622 28.3242H29.3739C29.9716 28.4531 31.1434 28.7109 31.3309 28.7695C31.4716 28.8164 31.9051 28.8281 32.2919 28.8281C32.6317 28.8281 32.9481 28.8164 33.0067 28.8164L34.413 28.6523L35.4325 28.2773L35.4208 28.2422L35.7255 28.4414V28.7344L35.2919 29.1328L34.3075 29.543L34.1317 29.6953L34.1434 29.6133C33.6981 29.5781 33.1708 29.5078 33.0887 29.4727C33.0302 29.4375 32.9364 29.3672 30.7216 29.3672C30.2997 29.3672 29.245 29.1328 29.1161 29.0859C28.9989 29.0508 28.0848 28.7695 27.9091 28.7227C27.7567 28.5703 26.8309 27.7148 26.0927 27.2812L25.9755 27.4922C26.7372 27.9375 27.7567 28.8984 27.7567 28.9102L27.7801 28.9336L27.8036 28.9453C27.8153 28.9453 28.9169 29.2734 29.0341 29.3086C29.1747 29.3555 30.2528 29.6016 30.7216 29.6016C32.5614 29.6016 32.9012 29.6484 32.9716 29.6719C33.1005 29.7422 33.5927 29.8008 33.9677 29.8359L33.8387 29.9414L33.2997 30.8203H33.5809L34.0262 30.0937L34.4481 29.7422L35.4325 29.332L35.9833 28.8281V28.3008L35.3856 27.9141L34.9755 26.625L34.0848 25.4414L33.1591 24.8906L30.9208 23.7305L29.1981 23.5664L27.1591 23.7773L25.5887 24.375L24.7216 25.4531L24.1942 25.7344L23.9833 25.5469L24.0887 24.9141L25.0848 23.9531L25.9637 23.2383L27.1942 23.0039L28.577 22.9687H30.0536L31.2606 23.0039L32.5145 23.6953C33.0536 23.9766 33.6747 24.3281 33.7333 24.4219C33.8153 24.5859 34.7294 25.4531 35.0223 25.7227L35.8544 26.8008L35.9716 27.668L36.2059 27.6328L36.077 26.6953L35.1981 25.5586L35.1864 25.5469C34.6122 25.0195 33.9911 24.4102 33.9325 24.3047C33.8505 24.1289 33.0653 23.707 32.6083 23.4727L31.7528 23.0039L33.7098 23.0391L34.413 23.4727L35.3387 24.3164L35.8427 24.9492L36.0887 26.2734L36.3231 26.2266L36.0653 24.8437L35.5145 24.1641L34.5536 23.2852L33.7684 22.8047L31.2723 22.7578L30.0419 22.7109H28.5536L27.1591 22.7578L25.8348 23.0156L24.9091 23.7773L23.8427 24.7969L23.702 25.6406L24.1473 26.0273L24.8036 25.6758ZM33.9442 25.6289L34.7762 26.7422L35.1981 28.0781L35.245 28.1016L34.413 28.418L33.0302 28.582C32.5028 28.5937 31.6005 28.6055 31.4364 28.5469C31.202 28.4648 29.6552 28.1367 29.4677 28.0898C28.7294 27.6914 27.9208 27.2344 27.8387 27.1406C27.745 27.0117 27.1825 26.7305 26.8544 26.5664L25.7997 25.9453L26.5731 25.8047C27.0536 25.7461 28.3192 25.6055 28.4833 25.6055C28.5536 25.6055 28.8114 25.6289 29.0809 25.6523C29.8778 25.7227 30.2528 25.7461 30.3583 25.7227C30.4755 25.6992 31.5887 25.582 32.3153 25.5234L33.4637 25.4414L33.452 25.3242L33.9442 25.6289ZM25.7411 24.5742L27.2177 24.0117L29.2098 23.8125L30.8622 23.9766L33.0536 25.1133L33.2528 25.2305L32.2801 25.3008C32.0926 25.3125 30.452 25.4648 30.288 25.5117C30.1825 25.5352 29.5028 25.4648 29.0809 25.4297C28.7762 25.4062 28.5419 25.3828 28.4598 25.3828C28.2489 25.3828 26.5848 25.582 26.5145 25.5937L25.4598 25.793L24.9794 25.5117L25.7411 24.5742Z" fill="black"/>
<path d="M33.1942 30.9961C32.9247 31.1484 32.6552 31.2656 32.3739 31.3828C32.245 31.3828 31.5184 31.7227 30.9325 32.0039C30.827 32.0391 29.8661 32.332 29.6434 32.3672L29.6786 32.6016C29.9247 32.5547 30.9677 32.2383 31.0145 32.2266L31.0262 32.2148C31.6122 31.9336 32.2802 31.6289 32.3739 31.6055C32.5145 31.5938 33.0302 31.3359 33.3231 31.1836L33.3466 31.1719L33.5692 30.8086H33.288L33.1942 30.9961Z" fill="black"/>
<path d="M34.3192 21.3984L34.1669 21.5039C34.2372 21.4922 34.3075 21.4922 34.3778 21.4805L34.3192 21.3984Z" fill="black"/>
<path d="M34.87 22.6055L35.1747 23.1328L35.0223 23.6602L35.2567 23.7305L35.4325 23.1094L35.0809 22.4883L34.3895 21.4922C34.3192 21.5039 34.2489 21.5039 34.1786 21.5156L34.1317 21.5508L34.87 22.6055Z" fill="black"/>
<path d="M42.0419 22.3242L43.0848 22.2188C43.0848 22.2188 45.6864 22.9922 45.7919 23.0977C45.8973 23.2031 47.2098 23.7773 47.2098 23.7773L47.9833 23.8477L48.0887 23.1445L47.5145 22.3242L45.8622 21.1055L43.9755 20.1914L42.7919 19.7812L42.37 13.8047L41.3739 12.3164L39.8856 11.0977L37.9637 10.1484L35.9716 10.1133L32.2216 10.582L28.7762 11.2617L28.577 10.6758C28.3075 10.6055 28.038 10.5586 27.7684 10.5234C27.5692 10.5234 25.7411 11.0859 25.7411 11.0859L24.6278 11.6719L24.3934 12.3516L22.7997 13.2305L21.5106 14.8477L20.7723 16.4062C20.7723 16.4062 20.3973 17.9648 20.3973 18.0586C20.3973 18.1523 20.5966 19.0078 20.7372 19.0664C20.8778 19.125 21.9208 19.4062 21.9208 19.4062L23.2919 20.0859L25.2723 21.2344L27.7333 22.043C27.7333 22.043 30.0653 21.8789 30.2997 21.8789C30.5341 21.8789 34.0497 21.5039 34.2489 21.5039C34.4481 21.5039 38.3036 21.1992 38.4091 21.1992C38.5145 21.1992 40.8114 21.1641 40.8114 21.1641L41.7255 21.9727L42.0419 22.3242Z" fill="#C82727"/>
<path d="M41.1278 25.6406L41.4325 26.2852L41.62 27.0234L41.5262 27.4922L41.1278 28.5117L39.8622 28.7227L37.8231 28.3594L37.577 27.6445L37.6708 27L37.8817 25.9805L38.4091 25.3945L38.7489 25.582L40.9989 25.6406" fill="black"/>
<path d="M31.8466 25.5469L32.2216 26.2617L32.2567 27.1289L32.0692 27.9023L31.6708 28.5234L31.0262 28.5586L28.5536 27.8203L27.5692 26.9531L27.6981 26.4023L28.038 25.875L28.495 25.5117L30.2294 25.5586C30.2059 25.5469 31.7762 25.6758 31.8466 25.5469Z" fill="black"/>
<path d="M47.7723 22.418L46.8114 21.5742L45.4286 20.6484L43.1552 19.8164L42.8387 19.6875L42.745 17.7305C42.6278 16.7695 42.4637 15.3164 42.4637 15.1992C42.4637 15.0352 42.3817 13.8398 42.3817 13.793V13.7695L41.702 12.5391L40.5653 11.3672L38.8192 10.3711L37.3661 9.96094H35.3739L33.4169 10.207C32.6317 10.3359 31.4012 10.5352 31.2606 10.5352C31.0497 10.5352 29.4091 10.9102 29.2216 10.9453L28.6473 11.0977L28.7411 11.0508L28.5536 10.6758L27.9442 10.4414L27.0536 10.5234L25.6239 10.875L24.5458 11.5664L24.3231 12.1406L24.4755 12.1992L23.8778 12.3516H23.8544L22.5887 13.1484L21.7098 14.1445L20.913 15.4805L20.2802 17.6602V18.4453L20.6903 19.1719L23.2567 20.0859L24.1122 20.8594L26.0223 21.7266L27.7098 22.1484L30.8622 21.9375L35.4208 21.4453L38.6669 21.1992L41.3622 21.2344L44.2098 21.6445L46.4598 22.7109L46.5653 22.5L44.2919 21.4219L41.3973 21.0117L38.6669 20.9648L35.4091 21.2109L30.8505 21.7031L27.745 21.9023L26.1278 21.5039L24.2645 20.6484L23.3973 19.8633L20.8661 18.9609L20.538 18.375V17.6836L21.1473 15.5742L21.9208 14.2852L22.7645 13.3242L23.9716 12.5625L29.2919 11.168C29.9833 11.0156 31.1434 10.7578 31.2841 10.7578C31.495 10.7578 33.2762 10.4648 33.4755 10.4297L35.3973 10.1836H37.3427L38.7137 10.582L40.413 11.5547L41.5028 12.6797L42.1356 13.8398C42.1591 14.2734 42.2177 15.082 42.2177 15.1992C42.2177 15.3633 42.4755 17.5195 42.5106 17.7539L42.6044 19.5938L41.2216 19.0664L38.4911 18.7734L36.4286 18.5625L34.4012 18.7266L32.0575 18.9727L29.327 19.5938L27.2762 20.0859L25.9052 20.168L24.1473 19.8164L25.038 20.4609L25.7645 20.8828L27.4286 21.293L29.0575 21.3398H29.0692L30.5223 21.1758L32.5731 20.8477L34.577 20.5195L36.827 20.3555L38.3856 20.2734L40.2606 20.3906L42.8036 20.7188L46.0848 21.3398L46.6591 21.7148L47.5731 22.5117L47.8309 23.1094L47.7723 23.5547L47.2801 23.5898L46.3192 23.1445L44.5497 22.4414L43.1552 22.0195L41.9364 22.1484L41.9598 22.3828L43.1317 22.2656L44.4559 22.6641L46.2137 23.3555L47.2333 23.8242L47.9716 23.7773L48.077 23.0742L47.7723 22.418ZM24.5692 12.1641L24.745 11.7188L25.7177 11.0977L27.0887 10.7695L27.9208 10.6875L28.3895 10.8633L28.5184 11.1211L24.5692 12.1641ZM42.8387 20.5312L40.2723 20.2031L38.3739 20.0742L36.8036 20.1562L34.5419 20.3203L32.5145 20.6484L30.4637 20.9766L29.0341 21.1406L27.452 21.1055L25.8348 20.707L25.1552 20.3086H25.1434L25.8583 20.4492L27.2762 20.3672L29.3505 19.875L32.0575 19.2656L34.3895 19.0195L36.3934 18.8555L38.4325 19.0547L41.1278 19.3359L43.0497 20.0742L45.2997 20.8945L45.5575 21.0703L42.8387 20.5312Z" fill="black"/>
<path d="M31.0744 27.4894C31.4652 27.3732 31.7027 27.0124 31.6049 26.6836C31.5071 26.3548 31.111 26.1825 30.7202 26.2988C30.3294 26.415 30.0919 26.7758 30.1896 27.1046C30.2874 27.4334 30.6835 27.6057 31.0744 27.4894Z" fill="white"/>
<path d="M29.163 27.4219C29.3312 27.4219 29.4677 27.2855 29.4677 27.1172C29.4677 26.9489 29.3312 26.8125 29.163 26.8125C28.9947 26.8125 28.8583 26.9489 28.8583 27.1172C28.8583 27.2855 28.9947 27.4219 29.163 27.4219Z" fill="white"/>
<path d="M28.9755 26.4727C29.1437 26.4727 29.2802 26.3362 29.2802 26.168C29.2802 25.9997 29.1437 25.8633 28.9755 25.8633C28.8072 25.8633 28.6708 25.9997 28.6708 26.168C28.6708 26.3362 28.8072 26.4727 28.9755 26.4727Z" fill="white"/>
<path d="M38.9012 27.8086C39.0566 27.8086 39.1825 27.6827 39.1825 27.5273C39.1825 27.372 39.0566 27.2461 38.9012 27.2461C38.7459 27.2461 38.62 27.372 38.62 27.5273C38.62 27.6827 38.7459 27.8086 38.9012 27.8086Z" fill="white"/>
<path d="M38.8661 26.7422C39.0344 26.7422 39.1708 26.6058 39.1708 26.4375C39.1708 26.2692 39.0344 26.1328 38.8661 26.1328C38.6978 26.1328 38.5614 26.2692 38.5614 26.4375C38.5614 26.6058 38.6978 26.7422 38.8661 26.7422Z" fill="white"/>
<path d="M40.5419 27.6094C40.8461 27.6094 41.0927 27.3628 41.0927 27.0586C41.0927 26.7544 40.8461 26.5078 40.5419 26.5078C40.2377 26.5078 39.9911 26.7544 39.9911 27.0586C39.9911 27.3628 40.2377 27.6094 40.5419 27.6094Z" fill="white"/>
</g>
<defs>
<clipPath id="clip0_6024_1415">
<rect width="60" height="60" fill="white" transform="translate(0.428589)"/>
</clipPath>
</defs>
</svg>
