<svg width="24" height="24" viewBox="0 0 24 24" fill="none" xmlns="http://www.w3.org/2000/svg">
<g opacity="0.5">
<path d="M24 18.3677C24 18.8323 23.6516 19.1806 23.1871 19.1806H0.812903C0.348387 19.1806 0 18.8323 0 18.3677V5.59354C0 5.12903 0.348387 4.78064 0.812903 4.78064H23.1871C23.6516 4.78064 24 5.12903 24 5.59354V18.3677Z" fill="#12DB55"/>
<path d="M24 18.3677C24 18.8323 23.6516 19.1806 23.1871 19.1806H0.812903C0.348387 19.1806 0 18.8323 0 18.3677V5.59354C0 5.12903 0.348387 4.78064 0.812903 4.78064H23.1871C23.6516 4.78064 24 5.12903 24 5.59354V18.3677Z" fill="#12DB55"/>
<path d="M0 5.59354C0 5.12903 0.348387 4.78064 0.812903 4.78064H23.1871C23.6516 4.78064 24 5.12903 24 5.59354V18.4064C24 18.871 23.6516 19.2194 23.1871 19.2194" fill="#0AC945"/>
<path d="M24 5.74838H0V10.4323H24V5.74838Z" fill="#334449"/>
<path d="M8.2447 10.4323H23.9995V5.74841H0.270508L8.2447 10.4323Z" fill="black"/>
<path d="M24 18.3677C24 18.8323 23.6516 19.1806 23.1871 19.1806H0.812903C0.348387 19.1806 0 18.8323 0 18.3677" fill="#0CC69A"/>
<path d="M23.1871 19.1806C23.6516 19.1806 24 18.8323 24 18.3677H21.8323L23.1871 19.1806Z" fill="#0BAF84"/>
<path d="M8.59386 12.7936C8.59386 12.9484 8.47773 13.0645 8.32289 13.0645H2.55515C2.40031 13.0645 2.28418 12.9484 2.28418 12.7936C2.28418 12.6387 2.40031 12.5226 2.55515 12.5226H8.32289C8.47773 12.5226 8.59386 12.6387 8.59386 12.7936Z" fill="#D4F9ED"/>
<path d="M8.59386 14.1871C8.59386 14.3419 8.47773 14.4581 8.32289 14.4581H2.55515C2.40031 14.4581 2.28418 14.3419 2.28418 14.1871C2.32289 14.0323 2.43902 13.9161 2.55515 13.9161H8.32289C8.47773 13.9161 8.59386 14.0323 8.59386 14.1871Z" fill="#D4F9ED"/>
<path d="M7.47163 15.5807C7.47163 15.7355 7.3555 15.8516 7.20066 15.8516H2.5555C2.43937 15.8516 2.32324 15.7355 2.32324 15.5807C2.32324 15.4258 2.43937 15.3097 2.59421 15.3097H7.23937C7.3555 15.3484 7.47163 15.4645 7.47163 15.5807Z" fill="#D4F9ED"/>
<path d="M17.4198 17.4387C19.0232 17.4387 20.3231 16.1388 20.3231 14.5354C20.3231 12.932 19.0232 11.6322 17.4198 11.6322C15.8164 11.6322 14.5166 12.932 14.5166 14.5354C14.5166 16.1388 15.8164 17.4387 17.4198 17.4387Z" fill="#FFBC00"/>
<path d="M17.4198 11.6322C15.9489 11.6322 14.7489 12.7161 14.5166 14.1096L19.2005 16.858C19.8972 16.3161 20.3231 15.5032 20.3231 14.5354C20.3618 12.9096 19.0456 11.6322 17.4198 11.6322Z" fill="#FFAA00"/>
<path d="M17.4189 11.6322C19.0448 11.6322 20.3222 12.9483 20.3222 14.5354C20.3222 16.1225 19.006 17.4387 17.4189 17.4387" fill="#F7B208"/>
<path d="M19.7418 17.4387C21.3453 17.4387 22.6451 16.1389 22.6451 14.5355C22.6451 12.9321 21.3453 11.6323 19.7418 11.6323C18.1384 11.6323 16.8386 12.9321 16.8386 14.5355C16.8386 16.1389 18.1384 17.4387 19.7418 17.4387Z" fill="#F20A41"/>
<path d="M19.7418 17.4387C21.3453 17.4387 22.6451 16.1389 22.6451 14.5355C22.6451 12.9321 21.3453 11.6323 19.7418 11.6323C18.1384 11.6323 16.8386 12.9321 16.8386 14.5355C16.8386 16.1389 18.1384 17.4387 19.7418 17.4387Z" fill="#F20A41"/>
<path d="M19.7418 17.4774C18.116 17.4774 16.8386 16.1613 16.8386 14.5742C16.8386 12.9871 18.1548 11.671 19.7418 11.671" fill="#E00040"/>
<path d="M18.5806 11.8645C17.5354 12.329 16.8386 13.3355 16.8386 14.5355C16.8386 15.7355 17.5741 16.7806 18.5806 17.2064C19.6257 16.7419 20.3225 15.7355 20.3225 14.5355C20.3225 13.3355 19.6257 12.2903 18.5806 11.8645Z" fill="#F97803"/>
<path d="M18.5811 17.2064C19.6262 16.7419 20.323 15.7355 20.323 14.5355C20.323 13.3355 19.5875 12.2903 18.5811 11.8645" fill="#F76806"/>
</g>
</svg>
