<svg width="130" height="34" viewBox="0 0 130 34" fill="none" xmlns="http://www.w3.org/2000/svg">
<g clip-path="url(#clip0_5650_22299)">
<path d="M46.7502 26.1688C45.6103 26.1688 44.5778 25.9871 43.6527 25.6236C42.744 25.2437 41.9593 24.682 41.2985 23.9385C40.6542 23.1951 40.1586 22.2782 39.8117 21.1879C39.4647 20.081 39.2913 18.8007 39.2913 17.3469C39.2913 15.8931 39.4647 14.6045 39.8117 13.4811C40.1586 12.3412 40.6542 11.3913 41.2985 10.6313C41.9593 9.85487 42.744 9.26839 43.6527 8.8719C44.5778 8.47541 45.6103 8.27717 46.7502 8.27717C48.3032 8.27717 49.5917 8.60758 50.616 9.26839C51.6403 9.92921 52.458 10.9287 53.0693 12.2669L50.2691 13.7537C50.0213 12.9772 49.6165 12.3577 49.0548 11.8951C48.4931 11.416 47.7249 11.1765 46.7502 11.1765C45.5277 11.1765 44.553 11.5895 43.8261 12.4155C43.1157 13.2416 42.7605 14.398 42.7605 15.8848V18.6107C42.7605 20.1141 43.1157 21.2705 43.8261 22.08C44.553 22.873 45.5277 23.2695 46.7502 23.2695C47.7249 23.2695 48.5179 23.0051 49.1292 22.4765C49.7569 21.9478 50.2113 21.2953 50.4921 20.5188L53.1436 22.08C52.5159 23.3686 51.6816 24.3763 50.6408 25.1032C49.6 25.8136 48.3032 26.1688 46.7502 26.1688Z" fill="white"/>
<path d="M60.3797 26.1688C59.4546 26.1688 58.6203 26.0119 57.8769 25.698C57.15 25.3841 56.5222 24.9298 55.9936 24.335C55.4814 23.7403 55.0849 23.0299 54.8041 22.2039C54.5232 21.3614 54.3828 20.4197 54.3828 19.3789C54.3828 18.3381 54.5232 17.4047 54.8041 16.5787C55.0849 15.7527 55.4814 15.0506 55.9936 14.4723C56.5222 13.8776 57.15 13.4233 57.8769 13.1094C58.6203 12.7955 59.4546 12.6386 60.3797 12.6386C61.3049 12.6386 62.1392 12.7955 62.8826 13.1094C63.626 13.4233 64.2538 13.8776 64.7659 14.4723C65.2946 15.0506 65.6993 15.7527 65.9802 16.5787C66.261 17.4047 66.4014 18.3381 66.4014 19.3789C66.4014 20.4197 66.261 21.3614 65.9802 22.2039C65.6993 23.0299 65.2946 23.7403 64.7659 24.335C64.2538 24.9298 63.626 25.3841 62.8826 25.698C62.1392 26.0119 61.3049 26.1688 60.3797 26.1688ZM60.3797 23.6164C61.2223 23.6164 61.8831 23.3603 62.3622 22.8482C62.8413 22.3361 63.0808 21.5844 63.0808 20.5932V18.1894C63.0808 17.2147 62.8413 16.4713 62.3622 15.9592C61.8831 15.447 61.2223 15.191 60.3797 15.191C59.5537 15.191 58.9011 15.447 58.4221 15.9592C57.943 16.4713 57.7034 17.2147 57.7034 18.1894V20.5932C57.7034 21.5844 57.943 22.3361 58.4221 22.8482C58.9011 23.3603 59.5537 23.6164 60.3797 23.6164Z" fill="white"/>
<path d="M70.2919 11.0527C69.6311 11.0527 69.152 10.904 68.8546 10.6066C68.5738 10.3093 68.4333 9.92931 68.4333 9.46674V8.97113C68.4333 8.50856 68.5738 8.12859 68.8546 7.83122C69.152 7.53385 69.6311 7.38517 70.2919 7.38517C70.9362 7.38517 71.407 7.53385 71.7044 7.83122C72.0018 8.12859 72.1504 8.50856 72.1504 8.97113V9.46674C72.1504 9.92931 72.0018 10.3093 71.7044 10.6066C71.407 10.904 70.9362 11.0527 70.2919 11.0527ZM68.7059 12.936H71.8779V25.8715H68.7059V12.936Z" fill="white"/>
<path d="M75.0498 25.8714V12.9359H78.2217V15.0919H78.3456C78.61 14.398 79.023 13.8198 79.5847 13.3572C80.1629 12.8781 80.9559 12.6386 81.9636 12.6386C83.3018 12.6386 84.326 13.0764 85.0364 13.9519C85.7468 14.8275 86.102 16.0748 86.102 17.6938V25.8714H82.93V18.016C82.93 17.0908 82.7648 16.397 82.4344 15.9344C82.104 15.4718 81.5589 15.2405 80.7989 15.2405C80.4685 15.2405 80.1464 15.2901 79.8325 15.3892C79.5351 15.4718 79.2625 15.604 79.0147 15.7857C78.7834 15.9509 78.5934 16.1657 78.4448 16.43C78.2961 16.6778 78.2217 16.9752 78.2217 17.3221V25.8714H75.0498Z" fill="white"/>
<path d="M93.3621 26.1688C92.1231 26.1688 91.0823 25.9623 90.2398 25.5493C89.3972 25.1198 88.6538 24.5333 88.0095 23.7899L89.9424 21.9065C90.4215 22.4517 90.9419 22.8812 91.5036 23.1951C92.0818 23.509 92.7426 23.666 93.486 23.666C94.246 23.666 94.7912 23.5338 95.1216 23.2695C95.4685 23.0051 95.642 22.6417 95.642 22.1791C95.642 21.7992 95.5181 21.5018 95.2703 21.287C95.039 21.0557 94.6342 20.8988 94.056 20.8162L92.7674 20.6427C91.3632 20.461 90.2893 20.0645 89.5459 19.4533C88.819 18.8255 88.4556 17.9169 88.4556 16.7274C88.4556 16.0996 88.5712 15.5379 88.8025 15.0423C89.0338 14.5302 89.3642 14.1006 89.7937 13.7537C90.2233 13.3903 90.7354 13.1177 91.3301 12.9359C91.9414 12.7377 92.6187 12.6386 93.3621 12.6386C93.9899 12.6386 94.5433 12.6881 95.0224 12.7873C95.5181 12.8699 95.9641 13.002 96.3606 13.1837C96.7571 13.349 97.1205 13.5637 97.4509 13.828C97.7814 14.0758 98.1035 14.3567 98.4174 14.6706L96.5588 16.5291C96.1789 16.1326 95.7246 15.8022 95.1959 15.5379C94.6672 15.2736 94.089 15.1414 93.4613 15.1414C92.7674 15.1414 92.2635 15.2653 91.9496 15.5131C91.6523 15.7609 91.5036 16.0831 91.5036 16.4796C91.5036 16.9091 91.6275 17.2395 91.8753 17.4708C92.1396 17.6856 92.5774 17.8425 93.1887 17.9416L94.502 18.1151C97.294 18.5116 98.69 19.7837 98.69 21.9313C98.69 22.5591 98.5578 23.1373 98.2935 23.666C98.0457 24.1781 97.6905 24.6241 97.2279 25.0041C96.7654 25.3676 96.2037 25.6567 95.5428 25.8714C94.8985 26.0697 94.1716 26.1688 93.3621 26.1688Z" fill="white"/>
<path d="M108.727 23.7157H108.603C108.487 24.0461 108.33 24.36 108.132 24.6574C107.95 24.9382 107.711 25.1943 107.413 25.4256C107.132 25.6569 106.786 25.8386 106.373 25.9708C105.976 26.1029 105.513 26.169 104.985 26.169C103.647 26.169 102.622 25.7312 101.912 24.8556C101.202 23.98 100.846 22.7327 100.846 21.1137V12.9361H104.018V20.7916C104.018 21.6837 104.192 22.3693 104.539 22.8484C104.886 23.311 105.439 23.5423 106.199 23.5423C106.513 23.5423 106.819 23.501 107.116 23.4183C107.43 23.3357 107.702 23.2118 107.934 23.0466C108.165 22.8649 108.355 22.6501 108.504 22.4023C108.652 22.138 108.727 21.8324 108.727 21.4855V12.9361H111.899V25.8716H108.727V23.7157Z" fill="white"/>
<path d="M118.242 25.8714C117.152 25.8714 116.351 25.5989 115.839 25.0537C115.326 24.5085 115.07 23.7403 115.07 22.7491V7.53376H118.242V23.3438H119.952V25.8714H118.242Z" fill="white"/>
<path d="M125.776 25.8717C124.685 25.8717 123.851 25.5908 123.273 25.0292C122.711 24.4509 122.43 23.6332 122.43 22.5759V15.4638H120.522V12.9362H121.513C121.993 12.9362 122.315 12.8288 122.48 12.614C122.662 12.3828 122.752 12.0441 122.752 11.598V9.39257H125.602V12.9362H128.254V15.4638H125.602V23.3441H128.056V25.8717H125.776Z" fill="white"/>
<path d="M10.9048 0.000232697H33.4794V22.5748C33.4794 25.467 32.3305 28.2406 30.2855 30.2857C28.2404 32.3307 25.4667 33.4796 22.5746 33.4796H0V10.905C0 8.0129 1.1489 5.23922 3.19394 3.19418C5.23899 1.14913 8.01267 0.000232697 10.9048 0.000232697Z" fill="url(#paint0_linear_5650_22299)"/>
<path d="M26.4509 13.1746L24.2127 14.2002L22.6413 14.9204L22.5713 14.9519L20.4108 15.9278C20.4108 15.9194 20.4073 15.911 20.4045 15.9026C20.277 15.3709 20.031 14.875 19.685 14.4517L19.4854 14.0153L21.641 13.0275L23.2354 12.2968L25.4933 11.2621C25.6185 11.4573 25.7352 11.657 25.8436 11.8611L26.4334 13.148L26.4509 13.1746Z" fill="white"/>
<path d="M26.8161 19.088C26.6502 19.794 26.4095 20.4802 26.098 21.1351L19.0974 19.9399L19.1633 19.5539C19.6739 19.1391 20.0615 18.5926 20.2841 17.9735L26.8161 19.088Z" fill="white"/>
<path d="M14.1974 20.2015L11.3692 22.2043L9.34743 23.6363C8.86471 23.1089 8.43855 22.5325 8.07593 21.9164L10.0872 20.4915L11.5002 19.4904L12.9616 18.4557L14.1974 20.2015Z" fill="white"/>
<path d="M14.467 11.4045L13.5927 13.3562L12.3121 12.7825L10.6903 12.056L8.40723 11.0325C8.82336 10.4153 9.30588 9.84565 9.84616 9.33365L12.3373 10.4496L14.2421 11.3043L14.467 11.4045Z" fill="white"/>
<path d="M24.3925 18.6743C24.0506 20.0021 23.363 21.2156 22.3997 22.1913C21.4364 23.1671 20.2318 23.8702 18.9084 24.2291C17.5851 24.588 16.1903 24.5899 14.866 24.2346C13.5417 23.8793 12.3352 23.1796 11.3692 22.2065C10.8652 21.6974 10.4338 21.1212 10.0872 20.4943L8.07593 21.9192C9.10816 23.6784 10.6437 25.0879 12.4846 25.966C14.3255 26.8442 16.3872 27.1507 18.4039 26.8461C20.4206 26.5414 22.2998 25.6395 23.7991 24.2568C25.2985 22.874 26.3492 21.0738 26.8157 19.0883L24.3925 18.6743Z" fill="white"/>
<path d="M12.3375 10.4498C13.3189 9.74255 14.4519 9.27434 15.6462 9.08251C16.8406 8.89068 18.0632 8.98055 19.2167 9.34494C20.3701 9.70933 21.4225 10.3382 22.2899 11.1813C23.1573 12.0245 23.8157 13.0586 24.2126 14.2013L26.4508 13.1757C26.4466 13.1652 26.4431 13.1547 26.4389 13.1448L25.8491 11.8579C25.7384 11.6543 25.6216 11.4546 25.4988 11.259C24.588 9.82915 23.3359 8.64842 21.8551 7.82316C20.3743 6.9979 18.7114 6.55404 17.0163 6.5316C15.3212 6.50915 13.6472 6.90881 12.1451 7.69457C10.6429 8.48033 9.35991 9.62749 8.41162 11.0327L10.6947 12.0562C11.1596 11.4422 11.7132 10.9008 12.3375 10.4498Z" fill="white"/>
<path d="M9.26127 15.257C9.34688 14.8169 9.47017 14.3849 9.62976 13.9659L7.38799 12.9613C6.50564 15.1842 6.42881 17.6457 7.17082 19.9192L9.2977 18.413C9.06899 17.3747 9.05659 16.3004 9.26127 15.257Z" fill="white"/>
<path d="M24.1002 13.9014L22.5569 14.6769L22.4896 14.7112L20.3726 15.7739" fill="white"/>
<path d="M12.8591 18.51L11.4923 19.4782C11.1463 18.8008 10.9324 18.0638 10.8618 17.3065L11.624 16.7671L12.8591 18.51Z" fill="white"/>
<path d="M13.8873 13.5294L13.013 15.4812L11.2014 14.6671C11.4478 13.9875 11.8152 13.358 12.2859 12.8093L13.8873 13.5294Z" fill="white"/>
<path d="M22.6917 18.3841C22.3616 19.5522 21.6874 20.5937 20.7568 21.3729C19.8262 22.1522 18.6824 22.6331 17.4746 22.7528C16.2667 22.8726 15.0508 22.6257 13.9853 22.0444C12.9198 21.4631 12.0541 20.5743 11.5011 19.4938C11.4978 19.4893 11.4952 19.4844 11.4934 19.4791C10.9517 18.4139 10.738 17.2121 10.8793 16.0255C11.0206 14.8389 11.5105 13.7209 12.2871 12.8126L12.313 12.7832C13.0172 11.9717 13.9249 11.3626 14.9428 11.0186C15.9607 10.6745 17.0518 10.608 18.1039 10.8259C19.156 11.0437 20.131 11.5381 20.9286 12.2581C21.7261 12.9781 22.3173 13.8976 22.6413 14.922L22.5712 14.9528L20.4107 15.928C20.4107 15.9196 20.4072 15.9112 20.4044 15.9028C20.203 15.0554 19.7034 14.3089 18.9969 13.7996C18.2904 13.2902 17.4242 13.0522 16.5566 13.1289C15.689 13.2056 14.878 13.5919 14.2718 14.2173C13.6656 14.8426 13.3047 15.6653 13.2551 16.5348C13.2055 17.4043 13.4704 18.2627 14.0015 18.953C14.5325 19.6433 15.2943 20.1194 16.1475 20.2944C17.0007 20.4693 17.8883 20.3314 18.6482 19.9058C19.4081 19.4802 19.9895 18.7953 20.286 17.9764L22.6917 18.3841Z" fill="white"/>
</g>
<defs>
<linearGradient id="paint0_linear_5650_22299" x1="0.535222" y1="0.835292" x2="49.5403" y2="48.9331" gradientUnits="userSpaceOnUse">
<stop stop-color="#3B916F"/>
<stop offset="1" stop-color="#096AA5"/>
</linearGradient>
<clipPath id="clip0_5650_22299">
<rect width="129.79" height="33.4794" fill="white"/>
</clipPath>
</defs>
</svg>
