<svg width="95" height="56" viewBox="0 0 95 56" fill="none" xmlns="http://www.w3.org/2000/svg">
<path d="M36.6328 41.7678H32.0298V20.9006H30.4954V27.038H27.4267V33.1754H22.8237V27.038H19.7549V20.9006H18.2206V41.7678H13.6175V11.0808H18.2206V16.6044H21.2893V19.6731H24.358V25.8105H25.8924V19.6731H28.9611V16.6044H32.0298V11.0808H36.6328V41.7678Z" fill="white"/>
<path d="M36.6328 41.7678H32.0298V20.9006H30.4954V27.038H27.4267V33.1754H22.8237V27.038H19.7549V20.9006H18.2206V41.7678H13.6175V11.0808H18.2206V16.6044H21.2893V19.6731H24.358V25.8105H25.8924V19.6731H28.9611V16.6044H32.0298V11.0808H36.6328V41.7678Z" fill="url(#paint0_linear_4734_53007)"/>
<path d="M36.6328 41.7678H32.0298V20.9006H30.4954V27.038H27.4267V33.1754H22.8237V27.038H19.7549V20.9006H18.2206V41.7678H13.6175V11.0808H18.2206V16.6044H21.2893V19.6731H24.358V25.8105H25.8924V19.6731H28.9611V16.6044H32.0298V11.0808H36.6328V41.7678Z" fill="white"/>
<path d="M54.3565 41.7678H43.616V38.0854H46.6847V14.7632H43.616V11.0808H54.3565V14.7632H51.2877V38.0854H54.3565V41.7678Z" fill="white"/>
<path d="M70.3319 5.33508L81.6251 24.8954H59.0388L70.3319 5.33508Z" fill="#75D154"/>
<path d="M70.1764 47.1962L58.8832 27.6359L81.4695 27.6359L70.1764 47.1962Z" fill="#D02E22"/>
<defs>
<linearGradient id="paint0_linear_4734_53007" x1="25.5488" y1="8.76782" x2="25.5488" y2="40.7678" gradientUnits="userSpaceOnUse">
<stop stop-color="white" stop-opacity="0"/>
<stop offset="1" stop-color="white" stop-opacity="0.3"/>
</linearGradient>
</defs>
</svg>
