<svg width="32" height="32" viewBox="0 0 32 32" fill="none" xmlns="http://www.w3.org/2000/svg">
<path d="M4.6348 14.5732C4.6348 14.5732 16.4289 9.74769 20.5193 8.04861C22.0872 7.36898 27.4048 5.19406 27.4048 5.19406C27.4048 5.19406 29.859 4.24272 29.6545 6.55332C29.5862 7.50484 29.0408 10.8351 28.4954 14.4372C27.6774 19.5346 26.7911 25.1075 26.7911 25.1075C26.7911 25.1075 26.6549 26.6707 25.496 26.9426C24.3369 27.2145 22.4281 25.9911 22.0872 25.7192C21.8146 25.5152 16.9743 22.4569 15.2019 20.9618C14.7246 20.554 14.1792 19.7384 15.27 18.7868C17.7242 16.5442 20.6557 13.7575 22.4281 11.9905C23.2461 11.1749 24.0643 9.27184 20.6557 11.5826C15.8154 14.9128 11.0432 18.0393 11.0432 18.0393C11.0432 18.0393 9.95257 18.7189 7.90737 18.1072C5.86217 17.4955 3.47608 16.68 3.47608 16.68C3.47608 16.68 1.84006 15.6604 4.63516 14.5732H4.6348Z" stroke="white" stroke-width="1.82074"/>
</svg>
